<svg width="93" height="32" viewBox="0 0 93 32" fill="none" xmlns="http://www.w3.org/2000/svg">
<path d="M85.4626 0.501079H7.39874C7.11418 0.501079 6.83305 0.501079 6.54925 0.502654C6.31168 0.504229 6.07601 0.508804 5.83616 0.512655C5.3151 0.518878 4.79526 0.565399 4.28117 0.651814C3.7678 0.74011 3.27051 0.906574 2.80612 1.14557C2.3423 1.3866 1.91849 1.69978 1.55008 2.07377C1.17973 2.4467 0.871011 2.87776 0.6358 3.35037C0.399941 3.82204 0.236395 4.32748 0.150812 4.84923C0.064415 5.37032 0.0179239 5.89742 0.0117561 6.4258C0.00455501 6.66725 0.00379455 6.9095 0 7.15097V25.3534C0.00379455 25.5979 0.00455501 25.8348 0.0117561 26.0794C0.0179258 26.6077 0.0644169 27.1348 0.150812 27.6559C0.236159 28.1779 0.399714 28.6837 0.6358 29.1555C0.870904 29.6266 1.17966 30.0559 1.55008 30.4268C1.9171 30.8024 2.34118 31.1158 2.80612 31.355C3.2705 31.5946 3.76774 31.7621 4.28117 31.8517C4.79535 31.9375 5.31513 31.984 5.83616 31.991C6.07601 31.9963 6.31168 31.9994 6.54925 31.9994C6.83304 32.001 7.1142 32.001 7.39874 32.001H85.4626C85.7414 32.001 86.0248 32.001 86.3037 31.9994C86.5402 31.9994 86.7826 31.9963 87.0191 31.991C87.5391 31.9844 88.0579 31.9378 88.5711 31.8517C89.0861 31.7615 89.5852 31.594 90.0518 31.355C90.5163 31.1157 90.94 30.8023 91.3067 30.4268C91.6762 30.0545 91.9856 29.6255 92.2236 29.1555C92.4579 28.6833 92.6199 28.1776 92.704 27.6559C92.7905 27.1347 92.8387 26.6078 92.848 26.0794C92.8511 25.8348 92.8511 25.5979 92.8511 25.3534C92.8571 25.0673 92.8571 24.7828 92.8571 24.492V8.01076C92.8571 7.72237 92.8571 7.43629 92.8511 7.15097C92.8511 6.9095 92.8511 6.66725 92.848 6.42577C92.8387 5.89734 92.7905 5.37036 92.704 4.8492C92.6197 4.32775 92.4577 3.82235 92.2236 3.35034C91.7446 2.40304 90.9851 1.63195 90.0518 1.1455C89.5852 0.907087 89.0861 0.740667 88.5711 0.651743C88.058 0.564947 87.5392 0.51841 87.0191 0.512545C86.7826 0.508702 86.5402 0.504087 86.3037 0.502552C86.0248 0.500977 85.7414 0.500977 85.4626 0.500977V0.501079Z" fill="#A6A6A6"/>
<path d="M6.55528 31.3112C6.31886 31.3112 6.08814 31.3082 5.85357 31.3028C5.36764 31.2964 4.88284 31.2534 4.40315 31.1744C3.95587 31.0962 3.52257 30.9508 3.11755 30.7429C2.71625 30.5367 2.35022 30.2664 2.0335 29.9423C1.7122 29.622 1.4447 29.2505 1.24161 28.8426C1.03627 28.432 0.894171 27.9918 0.820249 27.5375C0.740419 27.0494 0.697228 26.5558 0.691048 26.061C0.686128 25.8949 0.679688 25.3419 0.679688 25.3419V7.15029C0.679688 7.15029 0.686547 6.60581 0.691087 6.44584C0.697004 5.95183 0.739944 5.45899 0.819535 4.97159C0.893594 4.51604 1.03581 4.07465 1.24125 3.66269C1.4436 3.25501 1.70961 2.88325 2.02898 2.56181C2.34799 2.23731 2.71518 1.96561 3.11717 1.75662C3.52126 1.54941 3.95374 1.40502 4.40012 1.32827C4.88138 1.24839 5.36786 1.2052 5.85548 1.19907L6.55566 1.18945H86.3022L87.0107 1.19945C87.4939 1.20528 87.976 1.24808 88.4528 1.32749C88.9037 1.40521 89.3407 1.55061 89.7494 1.75892C90.5547 2.18011 91.21 2.84648 91.6234 3.66461C91.8256 4.07372 91.9656 4.51152 92.0387 4.96313C92.1192 5.45453 92.1643 5.95124 92.1736 6.44931C92.1758 6.67233 92.1758 6.91188 92.1758 7.15029C92.182 7.4456 92.182 7.72668 92.182 8.01007V24.4913C92.182 24.7774 92.182 25.0566 92.1758 25.3381C92.1758 25.5942 92.1758 25.8288 92.1728 26.0702C92.1637 26.5594 92.1194 27.0472 92.0402 27.5298C91.9678 27.9874 91.8264 28.431 91.6211 28.8449C91.4166 29.2485 91.1507 29.6167 90.8331 29.9362C90.5161 30.262 90.1494 30.5339 89.7472 30.7414C89.3396 30.9509 88.9032 31.0968 88.4528 31.1744C87.9732 31.2539 87.4883 31.2968 87.0024 31.3028C86.7751 31.3082 86.5371 31.3112 86.306 31.3112L85.4648 31.3128L6.55528 31.3112Z" fill="black"/>
<path d="M19.2208 16.4899C19.2292 15.8326 19.4012 15.1881 19.721 14.6164C20.0407 14.0447 20.4977 13.5644 21.0495 13.2201C20.699 12.7121 20.2365 12.2939 19.6989 11.999C19.1613 11.704 18.5633 11.5404 17.9524 11.521C16.6494 11.3822 15.3861 12.3123 14.7221 12.3123C14.0452 12.3123 13.0229 11.5347 11.922 11.5577C11.2099 11.5811 10.5159 11.7912 9.90759 12.1677C9.29932 12.5442 8.79751 13.0741 8.45106 13.7059C6.95031 16.3428 8.06973 20.2181 9.50733 22.3496C10.2266 23.3933 11.0672 24.5591 12.1671 24.5178C13.2434 24.4725 13.6454 23.8212 14.9447 23.8212C16.2318 23.8212 16.609 24.5178 17.7312 24.4915C18.8862 24.4725 19.6138 23.4431 20.3079 22.3895C20.8246 21.6459 21.2223 20.8239 21.4861 19.9542C20.8151 19.6662 20.2425 19.1841 19.8397 18.568C19.4369 17.952 19.2216 17.2292 19.2208 16.4899Z" fill="white"/>
<path d="M17.1011 10.1195C17.7308 9.35227 18.041 8.36619 17.9659 7.37061C17.0038 7.47315 16.1151 7.93979 15.4769 8.67754C15.1648 9.03795 14.9258 9.45725 14.7735 9.91145C14.6213 10.3657 14.5587 10.8459 14.5894 11.3246C15.0706 11.3297 15.5467 11.2238 15.9817 11.0151C16.4168 10.8063 16.7995 10.5001 17.1011 10.1195Z" fill="white"/>
<path d="M32.8268 21.8737H29.1538L28.2717 24.5169H26.7159L30.195 14.7378H31.8113L35.2904 24.5169H33.7081L32.8268 21.8737ZM29.5342 20.654H32.4457L31.0104 16.3643H30.9702L29.5342 20.654Z" fill="white"/>
<path d="M42.8035 20.9517C42.8035 23.1673 41.635 24.5908 39.8716 24.5908C39.4249 24.6145 38.9807 24.5101 38.5897 24.2895C38.1988 24.0689 37.877 23.741 37.6611 23.3434H37.6278V26.8749H36.1857V17.3865H37.5815V18.5723H37.6081C37.8338 18.1766 38.1611 17.8505 38.555 17.6285C38.9489 17.4066 39.3948 17.2971 39.8451 17.3119C41.6281 17.3119 42.8035 18.7423 42.8035 20.9517ZM41.3213 20.9517C41.3213 19.5083 40.5862 18.5592 39.4647 18.5592C38.3628 18.5592 37.6217 19.5282 37.6217 20.9517C37.6217 22.3883 38.3628 23.3504 39.4647 23.3504C40.5862 23.3504 41.3213 22.4083 41.3213 20.9517Z" fill="white"/>
<path d="M50.5363 20.9517C50.5363 23.1673 49.3678 24.5908 47.6044 24.5908C47.1577 24.6145 46.7134 24.5101 46.3225 24.2895C45.9316 24.0689 45.6098 23.741 45.3939 23.3434H45.3605V26.8749H43.9185V17.3865H45.3143V18.5723H45.3408C45.5666 18.1766 45.8939 17.8505 46.2878 17.6285C46.6817 17.4065 47.1275 17.2971 47.5778 17.3119C49.361 17.3119 50.5363 18.7423 50.5363 20.9517ZM49.0541 20.9517C49.0541 19.5082 48.319 18.5592 47.1975 18.5592C46.0956 18.5592 45.3545 19.5282 45.3545 20.9517C45.3545 22.3883 46.0956 23.3504 47.1975 23.3504C48.319 23.3504 49.0541 22.4083 49.0541 20.9517H49.0541Z" fill="white"/>
<path d="M55.6453 21.7917C55.7521 22.7615 56.6804 23.3982 57.949 23.3982C59.1645 23.3982 60.039 22.7614 60.039 21.887C60.039 21.128 59.5115 20.6735 58.2627 20.362L57.0139 20.0567C55.2444 19.623 54.423 18.7832 54.423 17.4204C54.423 15.7332 55.8719 14.5742 57.9293 14.5742C59.9655 14.5742 61.3613 15.7332 61.4083 17.4204H59.9526C59.8654 16.4445 59.0705 15.8554 57.9088 15.8554C56.7471 15.8554 55.9522 16.4515 55.9522 17.3189C55.9522 18.0103 56.4599 18.4171 57.7019 18.7286L58.7636 18.9931C60.7407 19.4676 61.5621 20.2736 61.5621 21.704C61.5621 23.5335 60.1261 24.6794 57.8421 24.6794C55.7051 24.6794 54.2623 23.5604 54.1691 21.7916L55.6453 21.7917Z" fill="white"/>
<path d="M64.6746 15.7012V17.3884H66.0106V18.5474H64.6746V22.478C64.6746 23.0886 64.9421 23.3731 65.5294 23.3731C65.688 23.3703 65.8464 23.359 66.0038 23.3393V24.4913C65.7397 24.5413 65.4714 24.564 65.2028 24.559C63.7804 24.559 63.2257 24.0168 63.2257 22.634V18.5474H62.2042V17.3884H63.2257V15.7012H64.6746Z" fill="white"/>
<path d="M66.7856 20.9518C66.7856 18.7085 68.0875 17.2988 70.1176 17.2988C72.1546 17.2988 73.4504 18.7084 73.4504 20.9518C73.4504 23.2012 72.1614 24.6047 70.1176 24.6047C68.0746 24.6047 66.7856 23.2012 66.7856 20.9518ZM71.981 20.9518C71.981 19.4129 71.2861 18.5047 70.1176 18.5047C68.9491 18.5047 68.2549 19.4198 68.2549 20.9518C68.2549 22.4968 68.9491 23.3981 70.1176 23.3981C71.2861 23.3981 71.981 22.4968 71.981 20.9518H71.981Z" fill="white"/>
<path d="M74.6378 17.3883H76.0132V18.6019H76.0466C76.1396 18.2229 76.3584 17.8879 76.6662 17.6533C76.9739 17.4188 77.3519 17.2988 77.7365 17.3137C77.9027 17.3132 78.0684 17.3315 78.2305 17.3683V18.7372C78.0207 18.6722 77.8019 18.6423 77.5826 18.6488C77.3731 18.6402 77.1643 18.6777 76.9704 18.7587C76.7765 18.8397 76.6022 18.9623 76.4594 19.1182C76.3167 19.274 76.2088 19.4594 76.1433 19.6615C76.0778 19.8636 76.0562 20.0777 76.0799 20.2892V24.5181H74.6378L74.6378 17.3883Z" fill="white"/>
<path d="M84.8811 22.4222C84.6871 23.7165 83.4451 24.6047 81.856 24.6047C79.8122 24.6047 78.5436 23.2151 78.5436 20.9856C78.5436 18.7492 79.819 17.2988 81.7953 17.2988C83.7391 17.2988 84.9614 18.6539 84.9614 20.8156V21.3171H79.9994V21.4055C79.9765 21.6679 80.0088 21.9322 80.0943 22.181C80.1798 22.4297 80.3165 22.6571 80.4952 22.8481C80.674 23.0391 80.8907 23.1893 81.1311 23.2888C81.3715 23.3883 81.6299 23.4347 81.8893 23.425C82.2301 23.4574 82.5721 23.3773 82.8644 23.1966C83.1567 23.0159 83.3838 22.7443 83.5117 22.4222L84.8811 22.4222ZM80.0062 20.2942H83.5186C83.5315 20.0583 83.4963 19.8222 83.415 19.6008C83.3338 19.3793 83.2083 19.1773 83.0465 19.0074C82.8847 18.8375 82.6901 18.7033 82.4747 18.6134C82.2594 18.5234 82.0281 18.4796 81.7953 18.4847C81.5605 18.4833 81.3277 18.5291 81.1104 18.6194C80.8931 18.7098 80.6956 18.8429 80.5292 19.0111C80.3629 19.1794 80.231 19.3794 80.1413 19.5996C80.0515 19.8198 80.0056 20.0559 80.0062 20.2942V20.2942Z" fill="white"/>
<path d="M29.3527 7.37691C29.655 7.3549 29.9584 7.40125 30.2409 7.51263C30.5235 7.624 30.7782 7.79763 30.9866 8.02099C31.195 8.24434 31.352 8.51185 31.4462 8.80423C31.5404 9.0966 31.5695 9.40655 31.5313 9.71172C31.5313 11.2129 30.7319 12.0758 29.3527 12.0758H27.6802V7.37691H29.3527ZM28.3994 11.4113H29.2724C29.4884 11.4244 29.7046 11.3884 29.9052 11.306C30.1058 11.2237 30.2858 11.0969 30.4321 10.935C30.5784 10.7731 30.6872 10.5802 30.7507 10.3702C30.8143 10.1603 30.8309 9.93858 30.7993 9.72129C30.8286 9.50486 30.8103 9.28454 30.7458 9.07612C30.6813 8.8677 30.5722 8.67634 30.4262 8.51574C30.2803 8.35515 30.1012 8.2293 29.9017 8.14721C29.7022 8.06513 29.4873 8.02884 29.2724 8.04094H28.3994V11.4113Z" fill="white"/>
<path d="M32.3443 10.3018C32.3223 10.0688 32.3486 9.83365 32.4214 9.61152C32.4942 9.38939 32.612 9.18516 32.7671 9.01193C32.9223 8.83869 33.1114 8.70027 33.3223 8.60556C33.5333 8.51084 33.7614 8.46191 33.9921 8.46191C34.2228 8.46191 34.4509 8.51084 34.6619 8.60556C34.8728 8.70027 35.0619 8.83869 35.2171 9.01193C35.3722 9.18516 35.49 9.38939 35.5628 9.61152C35.6356 9.83365 35.6619 10.0688 35.6399 10.3018C35.6623 10.5351 35.6363 10.7705 35.5637 10.993C35.4911 11.2155 35.3734 11.4201 35.2182 11.5937C35.063 11.7673 34.8738 11.906 34.6626 12.0009C34.4514 12.0958 34.223 12.1448 33.9921 12.1448C33.7611 12.1448 33.5328 12.0958 33.3216 12.0009C33.1104 11.906 32.9212 11.7673 32.766 11.5937C32.6108 11.4201 32.4931 11.2155 32.4205 10.993C32.3479 10.7705 32.3219 10.5351 32.3443 10.3018ZM34.9306 10.3018C34.9306 9.53315 34.5904 9.08365 33.9932 9.08365C33.3938 9.08365 33.0566 9.53315 33.0566 10.3018C33.0566 11.0766 33.3938 11.5227 33.9932 11.5227C34.5904 11.5227 34.9306 11.0735 34.9306 10.3018H34.9306Z" fill="white"/>
<path d="M40.02 12.0768H39.3047L38.5825 9.46514H38.5279L37.8088 12.0768H37.1002L36.1371 8.53076H36.8365L37.4625 11.2366H37.514L38.2324 8.53076H38.8939L39.6123 11.2366H39.6669L40.2898 8.53076H40.9794L40.02 12.0768Z" fill="white"/>
<path d="M41.789 8.5319H42.4528V9.09522H42.5044C42.5918 8.8929 42.7392 8.72329 42.9261 8.61005C43.113 8.4968 43.3301 8.44555 43.5471 8.46345C43.7171 8.45048 43.8878 8.47649 44.0466 8.53957C44.2053 8.60265 44.3481 8.70116 44.4642 8.82783C44.5804 8.95449 44.667 9.10606 44.7176 9.27129C44.7682 9.43652 44.7815 9.61119 44.7565 9.78235V12.0779H44.0669V9.95809C44.0669 9.38823 43.8229 9.10484 43.3129 9.10484C43.1975 9.09938 43.0823 9.11932 42.9751 9.16329C42.868 9.20725 42.7715 9.27421 42.6923 9.35956C42.613 9.44491 42.5529 9.54664 42.516 9.65778C42.4791 9.76892 42.4664 9.88684 42.4786 10.0035V12.0779H41.789L41.789 8.5319Z" fill="white"/>
<path d="M45.8552 7.14648H46.5448V12.0768H45.8552V7.14648Z" fill="white"/>
<path d="M47.5043 10.3019C47.4823 10.0688 47.5086 9.83369 47.5815 9.61155C47.6543 9.38941 47.7721 9.18517 47.9273 9.01193C48.0824 8.8387 48.2716 8.70028 48.4825 8.60556C48.6935 8.51084 48.9216 8.46191 49.1523 8.46191C49.383 8.46191 49.6112 8.51084 49.8221 8.60556C50.0331 8.70028 50.2222 8.8387 50.3774 9.01193C50.5325 9.18517 50.6503 9.38941 50.7232 9.61155C50.796 9.83369 50.8223 10.0688 50.8003 10.3019C50.8227 10.5352 50.7967 10.7706 50.7241 10.9931C50.6514 11.2156 50.5337 11.4202 50.3785 11.5938C50.2233 11.7673 50.034 11.906 49.8228 12.0009C49.6117 12.0959 49.3833 12.1449 49.1523 12.1449C48.9214 12.1449 48.693 12.0959 48.4818 12.0009C48.2706 11.906 48.0813 11.7673 47.9261 11.5938C47.7709 11.4202 47.6532 11.2156 47.5806 10.9931C47.5079 10.7706 47.4819 10.5352 47.5043 10.3019ZM50.0906 10.3019C50.0906 9.53322 49.7504 9.08372 49.1533 9.08372C48.5538 9.08372 48.2167 9.53322 48.2167 10.3019C48.2167 11.0767 48.5539 11.5227 49.1533 11.5227C49.7504 11.5227 50.0907 11.0736 50.0907 10.3019H50.0906Z" fill="white"/>
<path d="M51.5279 11.0736C51.5279 10.4353 51.9962 10.0673 52.8275 10.015L53.774 9.95962V9.65354C53.774 9.27901 53.53 9.06753 53.0586 9.06753C52.6737 9.06753 52.4069 9.21096 52.3304 9.46167H51.6628C51.7333 8.85258 52.2978 8.46191 53.0905 8.46191C53.9665 8.46191 54.4606 8.90449 54.4606 9.65354V12.0764H53.7967V11.5781H53.7422C53.6314 11.7568 53.4759 11.9025 53.2915 12.0004C53.1071 12.0982 52.9005 12.1446 52.6926 12.1348C52.5459 12.1503 52.3977 12.1344 52.2574 12.0882C52.1171 12.042 51.988 11.9664 51.8782 11.8664C51.7685 11.7665 51.6806 11.6442 51.6203 11.5077C51.5599 11.3711 51.5285 11.2232 51.5279 11.0736ZM53.774 10.7706V10.4741L52.9207 10.5295C52.4395 10.5622 52.2213 10.7283 52.2213 11.0409C52.2213 11.36 52.4941 11.5458 52.8692 11.5458C52.9791 11.557 53.0902 11.5458 53.1957 11.5126C53.3012 11.4795 53.3991 11.4251 53.4835 11.3528C53.5679 11.2805 53.6372 11.1917 53.6871 11.0916C53.737 10.9916 53.7665 10.8824 53.774 10.7706Z" fill="white"/>
<path d="M55.3646 10.3023C55.3646 9.18176 55.9322 8.47194 56.815 8.47194C57.0334 8.46173 57.2501 8.51481 57.4398 8.62497C57.6296 8.73514 57.7845 8.89784 57.8865 9.09406H57.938V7.14648H58.6276V12.0768H57.9668V11.5166H57.9123C57.8024 11.7114 57.6421 11.8721 57.4486 11.9812C57.2552 12.0902 57.0361 12.1435 56.815 12.1352C55.9261 12.1353 55.3646 11.4254 55.3646 10.3023ZM56.0769 10.3023C56.0769 11.0544 56.4263 11.507 57.0105 11.507C57.5917 11.507 57.9509 11.0478 57.9509 10.3053C57.9509 9.56628 57.588 9.10063 57.0105 9.10063C56.43 9.10063 56.0769 9.55628 56.0769 10.3023H56.0769Z" fill="white"/>
<path d="M61.4811 10.3018C61.4592 10.0688 61.4854 9.83365 61.5582 9.61152C61.6311 9.38939 61.7488 9.18516 61.904 9.01193C62.0591 8.83869 62.2482 8.70027 62.4592 8.60556C62.6701 8.51084 62.8983 8.46191 63.1289 8.46191C63.3596 8.46191 63.5877 8.51084 63.7987 8.60556C64.0096 8.70027 64.1988 8.83869 64.3539 9.01193C64.5091 9.18516 64.6268 9.38939 64.6996 9.61152C64.7725 9.83365 64.7987 10.0688 64.7768 10.3018C64.7991 10.5351 64.7732 10.7705 64.7006 10.993C64.6279 11.2155 64.5102 11.4201 64.3551 11.5937C64.1999 11.7673 64.0106 11.906 63.7994 12.0009C63.5883 12.0958 63.3599 12.1448 63.1289 12.1448C62.898 12.1448 62.6696 12.0958 62.4584 12.0009C62.2473 11.906 62.058 11.7673 61.9028 11.5937C61.7476 11.4201 61.6299 11.2155 61.5573 10.993C61.4847 10.7705 61.4587 10.5351 61.4811 10.3018ZM64.0675 10.3018C64.0675 9.53315 63.7272 9.08365 63.1301 9.08365C62.5307 9.08365 62.1935 9.53315 62.1935 10.3018C62.1935 11.0766 62.5307 11.5227 63.1301 11.5227C63.7272 11.5227 64.0675 11.0735 64.0675 10.3018Z" fill="white"/>
<path d="M65.7037 8.5319H66.3675V9.09522H66.419C66.5065 8.8929 66.6539 8.72329 66.8408 8.61005C67.0277 8.4968 67.2448 8.44555 67.4618 8.46345C67.6318 8.45048 67.8025 8.47649 67.9613 8.53957C68.12 8.60265 68.2628 8.70116 68.3789 8.82783C68.4951 8.95449 68.5817 9.10606 68.6323 9.27129C68.6829 9.43652 68.6962 9.61119 68.6712 9.78235V12.0779H67.9816V9.95809C67.9816 9.38823 67.7376 9.10484 67.2276 9.10484C67.1122 9.09938 66.9969 9.11932 66.8898 9.16329C66.7827 9.20725 66.6862 9.27421 66.6069 9.35956C66.5277 9.44491 66.4676 9.54664 66.4307 9.65778C66.3938 9.76892 66.381 9.88684 66.3933 10.0035V12.0779H65.7037V8.5319Z" fill="white"/>
<path d="M72.566 7.64893V8.54793H73.3231V9.13741H72.566V10.9608C72.566 11.3322 72.7168 11.4949 73.0601 11.4949C73.148 11.4946 73.2358 11.4892 73.3231 11.4787V12.0617C73.1993 12.0842 73.0738 12.0961 72.948 12.0974C72.1811 12.0974 71.8757 11.8237 71.8757 11.14V9.13737H71.321V8.5479H71.8757V7.64893H72.566Z" fill="white"/>
<path d="M74.2652 7.14648H74.9487V9.10062H75.0033C75.095 8.89641 75.2464 8.72584 75.4371 8.61217C75.6277 8.49849 75.8483 8.44724 76.0687 8.46539C76.2378 8.45605 76.4069 8.48471 76.5639 8.54932C76.7208 8.61393 76.8618 8.71289 76.9768 8.83916C77.0917 8.96542 77.1778 9.11588 77.2288 9.27978C77.2799 9.44369 77.2946 9.61701 77.2721 9.78737V12.0768H76.5818V9.96002C76.5818 9.39362 76.3218 9.10676 75.8346 9.10676C75.7161 9.0969 75.5969 9.11343 75.4853 9.15521C75.3737 9.19699 75.2725 9.26301 75.1887 9.34864C75.1049 9.43427 75.0406 9.53745 75.0002 9.65095C74.9598 9.76446 74.9443 9.88556 74.9548 10.0058V12.0768H74.2652L74.2652 7.14648Z" fill="white"/>
<path d="M81.2925 11.119C81.1988 11.4431 80.9958 11.7234 80.719 11.911C80.4422 12.0985 80.1093 12.1813 79.7784 12.1449C79.5482 12.1511 79.3194 12.1063 79.108 12.0138C78.8965 11.9212 78.7075 11.7831 78.5539 11.6089C78.4003 11.4348 78.2859 11.2288 78.2186 11.0053C78.1514 10.7818 78.1328 10.5461 78.1643 10.3146C78.1337 10.0824 78.1525 9.84618 78.2196 9.622C78.2867 9.39782 78.4005 9.19089 78.5533 9.01522C78.7061 8.83955 78.8942 8.69924 79.1051 8.60379C79.3159 8.50834 79.5445 8.45998 79.7754 8.46197C80.7476 8.46197 81.3342 9.13607 81.3342 10.2496V10.4938H78.8668V10.533C78.856 10.6631 78.8721 10.7941 78.9141 10.9176C78.9561 11.041 79.0231 11.1542 79.1107 11.2498C79.1983 11.3455 79.3046 11.4215 79.4229 11.473C79.5411 11.5245 79.6687 11.5503 79.7974 11.5489C79.9623 11.569 80.1294 11.5388 80.2775 11.4623C80.4255 11.3857 80.5477 11.2662 80.6287 11.119L81.2925 11.119ZM78.8668 9.97621H80.6317C80.6404 9.8572 80.6244 9.73766 80.5849 9.62527C80.5453 9.51288 80.4831 9.41013 80.4021 9.32361C80.3211 9.2371 80.2231 9.16874 80.1145 9.12293C80.006 9.07712 79.8891 9.05486 79.7716 9.0576C79.6523 9.05608 79.5339 9.0788 79.4235 9.12443C79.313 9.17006 79.2126 9.23768 79.1283 9.32329C79.044 9.4089 78.9774 9.51078 78.9325 9.62291C78.8876 9.73505 78.8652 9.85518 78.8668 9.97621H78.8668Z" fill="white"/>
</svg>
