<svg width="1536" height="720" viewBox="0 0 1536 720" fill="none" xmlns="http://www.w3.org/2000/svg">
<mask id="mask0_0_2064" style="mask-type:alpha" maskUnits="userSpaceOnUse" x="0" y="0" width="1536" height="720">
<rect width="1536" height="720" fill="#C4C4C4"/>
</mask>
<g mask="url(#mask0_0_2064)">
<rect width="217" height="324" fill="#73DAF5"/>
<path d="M1493.77 527L1572.97 548.223L1548.5 720.185L1442 720.185L1493.77 527Z" fill="#73DAF5"/>
<mask id="mask1_0_2064" style="mask-type:alpha" maskUnits="userSpaceOnUse" x="-5713" y="-1500" width="10820" height="3490">
<path fill-rule="evenodd" clip-rule="evenodd" d="M5107 -1500H-5713V1990H5107V-1500ZM-3997.17 1369.92C-3989.26 1322.12 -3892.04 969.458 -3774.15 549.621C-3612.66 462.263 -3435.02 356.658 -3261.74 242.495C-2566.51 -215.611 -2366.42 -513.372 -2321.04 -682.437C-2285.84 -813.232 -2323.3 -928.849 -2426.66 -1009.59C-2648.39 -1181.56 -3114.94 -1064.97 -3467.31 -935.792C-3853.54 -792.758 -4221.79 -605.261 -4564.66 -377.087C-4822.56 -202.855 -5140.54 52.2765 -5190.28 285.286C-5197.4 313.115 -5197.88 342.228 -5191.68 370.277C-5185.48 398.326 -5172.78 424.526 -5154.59 446.761C-5091.12 522.009 -4981.95 520.394 -4960.8 519.425C-4947.38 519.279 -4934.13 516.434 -4921.84 511.06C-4909.54 505.686 -4898.46 497.892 -4889.24 488.143C-4880.03 478.394 -4872.87 466.89 -4868.19 454.316C-4863.51 441.742 -4861.42 428.355 -4862.02 414.954C-4862.63 401.552 -4865.93 388.41 -4871.72 376.31C-4877.52 364.21 -4885.69 353.401 -4895.75 344.525C-4905.81 335.65 -4917.56 328.891 -4930.28 324.65C-4943.01 320.409 -4956.47 318.774 -4969.84 319.841C-4977.59 319.935 -4985.33 319.232 -4992.93 317.742C-4918.48 44.8486 -4138.15 -478.494 -3399.49 -747.996C-2906.61 -927.88 -2637.57 -919.483 -2550.04 -851.502C-2513.54 -823.244 -2494.65 -789.334 -2520.49 -715.863C-2589.12 -519.024 -2929.38 -210.283 -3428.88 112.668C-3520.61 172.253 -3612.01 227.477 -3698.25 277.373C-3628.97 32.2534 -3557.59 -218.356 -3496.22 -433.119C-3489.68 -458.365 -3493.27 -485.168 -3506.22 -507.807C-3519.17 -530.446 -3540.45 -547.127 -3565.53 -554.292C-3590.61 -561.457 -3617.49 -558.537 -3640.45 -546.155C-3663.41 -533.774 -3680.61 -512.911 -3688.4 -488.021C-3740.08 -307.168 -3843.75 56.3135 -3944.04 412.69C-4143.97 516.357 -4296.09 578.848 -4355.52 587.245C-4374.78 577.756 -4396.57 574.715 -4417.69 578.573C-4438.8 582.431 -4458.11 592.982 -4472.77 608.666C-4487.42 624.349 -4496.64 644.332 -4499.05 665.658C-4501.46 686.985 -4496.95 708.521 -4486.17 727.083C-4469.21 755.502 -4435.14 787.797 -4367.47 787.797C-4356.23 787.737 -4345.01 786.928 -4333.88 785.375C-4264.76 776.817 -4152.69 735.802 -4016.39 672.342C-4112.8 1017.58 -4191.77 1307.91 -4196.13 1347.31C-4198.95 1373.54 -4191.3 1399.82 -4174.85 1420.44C-4158.4 1441.06 -4134.48 1454.35 -4108.28 1457.44H-4097.14C-4072.64 1457.63 -4048.93 1448.82 -4030.51 1432.69C-4012.08 1416.55 -4000.22 1394.22 -3997.17 1369.92ZM2933.17 416.037L2933.27 415.758H2932.79C2986.08 268.654 3005.94 213.591 2953.78 160.627C2939.71 146.465 2921.86 136.64 2902.37 132.318C2882.87 127.995 2862.55 129.358 2843.8 136.244C2797.29 152.391 2760.47 192.76 2593.49 394.604L2592.66 395.607C2486.87 523.486 2355.29 682.522 2232.07 808.466C2116.93 926.182 2048.46 974.302 2011.47 993.84C2011.64 858.201 2126.13 499.079 2178.29 335.828C2278.74 20.9503 2296.18 -40.2489 2248.71 -100.156C2237.86 -113.822 2223.83 -124.609 2207.83 -131.565C2191.83 -138.521 2174.37 -141.432 2156.98 -140.041C1958.99 -124.378 1761.97 193.568 1484.2 677.994C1465.63 710.451 1446.09 744.522 1426.39 778.432C1484.2 509.252 1585.94 147.708 1611.94 81.1805L1612.83 78.905C1631.57 30.7985 1668.77 -64.6469 1586.91 -115.981C1503.74 -168.138 1428.49 -87.2384 1388.11 -43.64C1198.36 160.949 1036.38 276.243 908.48 340.833C903.352 305.617 894.917 270.962 883.288 237.328C863.263 180.327 824.828 106.694 755.871 74.3986C700.479 50.0157 632.49 60.6732 553.682 106.694C531.142 120.152 509.558 135.151 489.085 151.584C469.445 144.097 447.943 143.001 427.645 148.452C407.346 153.903 389.286 165.624 376.04 181.941C78.894 547.36 -53.2061 897.439 22.5337 1118.5C53.0557 1207.63 116.038 1267.54 200.175 1286.92C419.32 1336.81 641.049 1165 824.343 802.492C862.711 726.972 889.601 646.153 904.121 562.701C1027.99 513.935 1176.4 427.546 1345.32 278.342C1323.68 356.496 1300.58 443.693 1279.27 529.598C1155.07 1029.06 1186.16 1101.44 1202.41 1139.25L1202.72 1139.98C1209.11 1154.83 1218.4 1168.27 1230.05 1179.5C1241.7 1190.73 1255.46 1199.52 1270.55 1205.37C1370.22 1242.57 1440.35 1135.59 1487.98 1062.94L1488.4 1062.31C1536.04 989.642 1592.88 890.819 1657.48 777.786C1750.99 615.019 1856.93 430.614 1958.5 285.286C1975.19 261.28 1990.8 239.75 2005.34 220.696C2001.06 233.978 1996.87 247.178 1992.76 260.118C1991.13 265.269 1989.5 270.379 1987.9 275.436C1822.69 793.288 1767.3 1028.72 1852.08 1145.14C1866.09 1164.63 1884.59 1180.45 1906.01 1191.27C1927.43 1202.09 1951.14 1207.59 1975.14 1207.31C2132.75 1207.31 2331.55 1015.96 2649.53 638.917C2568.94 930.703 2533.09 1281.1 2816.51 1410.29C2840.44 1420.26 2867.3 1420.55 2891.43 1411.11C2915.57 1401.66 2935.09 1383.2 2945.88 1359.64C2956.67 1336.07 2957.88 1309.24 2949.26 1284.79C2940.64 1260.35 2922.87 1240.21 2899.68 1228.63C2676.43 1126.29 2856.24 628.856 2933.17 416.037ZM593.57 618.732C623.877 620.489 654.276 619.895 684.491 616.956C673.587 649.534 660.309 681.268 644.764 711.904C511.048 976.401 361.184 1118.18 244.102 1091.05C237.965 1089.76 221.815 1085.88 210.35 1052.46C184.995 979.469 200.175 797.647 370.388 527.338C417.382 579.656 496.675 612.596 593.57 618.732ZM676.254 265.424C699.431 310.441 712.076 360.134 713.236 410.752C684.254 416.904 654.688 419.882 625.062 419.633C592.099 420.946 559.291 414.474 529.297 400.741C547.061 358.595 627.807 285.124 676.254 265.424ZM4000.25 552.851C4180.31 512.966 4412.54 392.182 4680.94 95.5519L4681.75 94.2601C4698.73 74.4832 4707.31 48.8583 4705.66 22.8475C4704.01 -3.16321 4692.27 -27.5022 4672.94 -44.9814C4653.6 -62.4607 4628.2 -71.6974 4602.16 -70.7229C4576.11 -69.7484 4551.47 -58.6396 4533.5 -39.7645C4338.09 176.128 4172.4 284.317 4039.82 332.759C4043.83 253.782 4033.26 174.741 4008.65 99.5889C3981.2 21.5962 3938.72 -32.1752 3885.75 -55.9121C3797.58 -95.4736 3689.86 -35.8892 3610.25 31.4462C3590.41 24.172 3568.78 23.3796 3548.46 29.1832C3528.15 34.9868 3510.2 47.0869 3497.2 63.7412C3178.26 462.747 3036.63 836.725 3117.37 1062.79C3147.57 1149.5 3210.55 1206.66 3292.92 1224.27C3315.75 1229.07 3339.02 1231.51 3362.36 1231.53C3515.45 1231.53 3722.48 1125.93 3937.92 703.992C3962.81 655.408 3983.66 604.857 4000.25 552.851ZM3486.87 421.571C3537.58 481.963 3638.51 548.329 3782.24 565.446C3778.72 573.763 3774.79 582.126 3770.87 590.486C3767.4 597.87 3763.94 605.251 3760.76 612.597C3614.77 899.054 3455.38 1053.75 3335.23 1028.23C3329.57 1028.23 3316.66 1024.84 3306.32 995.939C3285 937.001 3298.24 829.781 3341.52 710.935C3379.71 609.659 3428.42 512.673 3486.87 421.571ZM3645.13 298.688C3659.18 253.475 3752.04 162.887 3807.43 138.343C3827.78 174.029 3848.29 258.319 3835.53 368.768H3825.84C3725.88 361.986 3666.28 319.841 3645.13 298.688ZM3193.44 -602.991C3274.02 -581.999 3320.05 -491.734 3296.63 -401.47C3272.89 -311.205 3188.59 -255.011 3108.17 -276.003C3027.75 -296.995 2981.23 -386.937 3004.97 -477.363C3028.71 -567.789 3112.85 -623.983 3193.44 -602.991ZM-134.921 -20.8721C-95.5171 -26.3622 -31.4048 -30.7219 10.4219 -9.08423C-21.2197 39.0223 -58.4023 83.2467 -100.362 122.68C-110.447 131.599 -118.626 142.464 -124.409 154.623C-130.192 166.781 -133.459 179.982 -134.013 193.434C-134.567 206.885 -132.398 220.31 -127.636 232.903C-122.873 245.496 -115.615 256.997 -106.297 266.716C-96.98 276.435 -85.7959 284.172 -73.4146 289.462C-61.0332 294.753 -47.7104 297.487 -34.2461 297.502C-20.7817 297.517 -7.45215 294.813 4.94092 289.55C17.334 284.287 28.5366 276.576 37.8755 266.877C254.598 58.7355 238.449 -57.6884 186.933 -118.888C135.417 -180.087 33.0308 -246.938 -163.344 -219.002C-323.544 -196.073 -507.323 -116.304 -644.915 -19.4187C-657.292 -24.6078 -670.573 -27.2969 -683.995 -27.3309C-1014.73 -25.2318 -1297.99 109.762 -1516.81 365.539C-1474.18 137.697 -1481.61 114.444 -1490.33 89.2543C-1497.02 66.9956 -1510 47.1422 -1527.71 32.0764C-1545.41 17.0106 -1567.08 7.37231 -1590.13 4.31824C-1677.17 -4.72437 -1726.43 73.5913 -1794.09 181.941L-1812.18 210.845C-1938.72 391.626 -2076.59 564.212 -2224.95 727.567C-2583.95 1121.73 -2754.81 1165.65 -2811.66 1165.65C-2834.59 1166.13 -2860.91 1160.64 -2886.43 1121.57C-2888.78 1117.89 -2890.89 1114.06 -2892.73 1110.1C-2692.31 990.126 -2495.45 798.293 -2330.09 556.08C-2187.17 346.162 -2039.72 59.3815 -2149.38 -114.528C-2199.28 -193.005 -2290.04 -228.529 -2398.72 -211.413C-2627.55 -175.404 -2843.15 138.827 -2967.98 421.087C-3010.78 515.873 -3115.75 775.202 -3113.32 999.33C-3164.55 1021.22 -3218.31 1036.63 -3273.36 1045.19C-3344.74 1055.52 -3446.16 1054.88 -3524 991.741C-3544.65 975.539 -3570.84 968.107 -3596.92 971.051C-3623 973.994 -3646.88 987.076 -3663.4 1007.47C-3679.92 1027.87 -3687.75 1053.94 -3685.2 1080.06C-3682.66 1106.18 -3669.94 1130.25 -3649.8 1147.08C-3543.7 1232.99 -3403.36 1266.25 -3244.29 1242.84C-3185.51 1233.9 -3127.85 1218.69 -3072.3 1197.46C-3066.83 1208.59 -3060.68 1219.37 -3053.89 1229.76C-2995.92 1318.73 -2911.78 1365.88 -2810.2 1364.59C-2455.08 1362.17 -1944.44 727.083 -1736.44 446.923C-1770.03 614.211 -1817.19 829.135 -1865.63 1047.61C-1888.09 1123.36 -1905.57 1200.49 -1917.96 1278.52C-1921.55 1304.03 -1915.16 1329.94 -1900.12 1350.84C-1885.07 1371.75 -1862.54 1386.05 -1837.21 1390.75C-1831.14 1391.84 -1824.97 1392.39 -1818.8 1392.36C-1796.3 1392.25 -1774.5 1384.56 -1756.91 1370.52C-1739.33 1356.49 -1726.99 1336.93 -1721.91 1315.01C-1721.91 1314.78 -1720.23 1307.63 -1717.19 1294.66C-1709.56 1262.07 -1693.33 1192.76 -1673.46 1104.29C-1636.59 973.837 -1585.86 847.706 -1522.14 728.052C-1353.7 416.727 -1123.9 234.582 -837.897 186.14C-846.039 204.64 -850.325 224.605 -850.492 244.817C-850.658 265.029 -846.702 285.062 -838.866 303.694C-804.953 382.817 -716.455 414.466 -603.411 454.512L-602.7 454.766C-486.383 496.384 -341.539 548.208 -296.575 647.314C-270.736 704.314 -276.711 781.338 -314.5 876.447C-405.098 1105.26 -544.305 1209.57 -645.237 1256.72C-769.425 1315.01 -869.389 1305.81 -887.476 1300.48C-948.681 1282.4 -986.793 1250.91 -1007.46 1202.47C-1069.64 1055.85 -964.669 795.71 -918.967 708.029C-912.88 696.366 -909.15 683.618 -907.991 670.514C-906.831 657.41 -908.265 644.206 -912.208 631.656C-916.152 619.105 -922.53 607.455 -930.977 597.369C-939.423 587.283 -949.775 578.959 -961.439 572.874C-973.103 566.788 -985.852 563.059 -998.957 561.899C-1012.06 560.74 -1025.27 562.172 -1037.82 566.116C-1050.37 570.06 -1062.02 576.437 -1072.11 584.883C-1082.2 593.329 -1090.52 603.679 -1096.61 615.342C-1117.92 656.033 -1301.86 1020.81 -1192.21 1280.14C-1148.45 1383.8 -1063.02 1457.11 -945.128 1491.99C-913.114 1500.52 -880.066 1504.54 -846.941 1503.94C-651.858 1503.94 -304.972 1394.46 -128.784 950.08C-70.3237 802.653 -66.2871 672.988 -114.735 564.8C-194.673 388.307 -392.501 317.742 -536.875 266.393C-541.768 264.612 -546.879 262.765 -552.125 260.869C-578.736 251.253 -608.793 240.392 -631.187 230.545C-555.77 145.286 -334.364 7.06323 -134.921 -20.8721ZM-2495.13 443.047C-2619.16 625.192 -2760.14 774.072 -2903.55 879.031C-2880.55 749.145 -2840.82 622.787 -2785.33 503.116C-2678.26 261.872 -2500.14 7.38623 -2366.91 -13.6056C-2359.95 -14.637 -2352.94 -15.1764 -2345.91 -15.2202C-2333.64 -15.2202 -2321.53 -12.9596 -2317.49 -6.66211C-2301.34 20.7887 -2298.76 155.136 -2495.13 443.047Z" fill="#73DAF5"/>
</mask>
<g mask="url(#mask1_0_2064)">
<rect width="1536" height="720" fill="#73DAF5"/>
</g>
</g>
</svg>
