<svg width="195" height="164" viewBox="0 0 195 164" fill="none" xmlns="http://www.w3.org/2000/svg">
<rect x="0.5" y="-0.5" width="87" height="125.647" rx="10.5345" transform="matrix(-1 0 0 1 88 10.6523)" fill="#FFFEFF" stroke="#EAEDEE"/>
<g clip-path="url(#clip0_0_1706)">
<path d="M36.6852 29.1266C36.3896 30.2649 36.1458 31.2211 36.126 31.3507C36.1183 31.4166 36.0886 31.4771 36.0424 31.5209C35.9962 31.5646 35.9367 31.5885 35.8753 31.588C35.8661 31.588 35.8568 31.588 35.8473 31.588C35.7816 31.5796 35.7217 31.5436 35.6804 31.4877C35.6392 31.4317 35.62 31.3605 35.627 31.2894C35.638 31.1826 35.836 30.3954 36.0778 29.4593C35.736 29.6314 35.4549 29.7426 35.2816 29.7658C35.2537 29.77 35.2256 29.7722 35.1974 29.7724C35.0277 29.7724 34.9422 29.6848 34.8997 29.6078C34.8727 29.5574 34.8614 29.499 34.8674 29.4412C34.8735 29.3834 34.8966 29.3292 34.9333 29.2867C34.9701 29.2442 35.0185 29.2156 35.0715 29.2051C35.1244 29.1946 35.1791 29.2029 35.2273 29.2286C35.3764 29.2058 35.7578 29.0364 36.2592 28.7553C36.5107 27.7891 36.7707 26.8036 36.9003 26.3132C36.9198 26.2457 36.9629 26.1892 37.0205 26.1556C37.0781 26.122 37.1455 26.1141 37.2084 26.1335C37.2713 26.153 37.3246 26.1982 37.3571 26.2596C37.3896 26.321 37.3986 26.3936 37.3822 26.4621C37.2283 27.0444 37.0493 27.7238 36.8756 28.3884C37.0918 28.2532 37.321 28.1034 37.5511 27.9419C38.8036 27.0663 39.6569 26.2292 39.829 25.6955C39.8938 25.4963 39.8464 25.4043 39.7549 25.3277C39.5354 25.1434 38.8607 25.1206 37.6248 25.6083C35.7724 26.3391 33.8156 27.758 33.6289 28.4979C33.648 28.5019 33.6674 28.5038 33.6868 28.5036C33.7204 28.5007 33.7541 28.5051 33.786 28.5166C33.8179 28.5281 33.8474 28.5465 33.8726 28.5705C33.8979 28.5946 33.9183 28.6239 33.9329 28.6567C33.9474 28.6895 33.9557 28.7251 33.9572 28.7615C33.9587 28.7978 33.9535 28.8341 33.9417 28.8682C33.93 28.9023 33.9121 28.9335 33.8889 28.9599C33.8658 28.9863 33.838 29.0075 33.8072 29.022C33.7764 29.0366 33.7432 29.0443 33.7095 29.0447C33.6565 29.0474 33.3827 29.0517 33.2235 28.8477C33.1779 28.7874 33.1461 28.7164 33.1305 28.6403C33.115 28.5643 33.1162 28.4854 33.1341 28.4099C33.2588 27.7781 34.0562 27.0864 34.7029 26.614C35.5627 25.9953 36.4862 25.487 37.4547 25.0992C38.3383 24.7489 39.5083 24.4328 40.0643 24.8991C40.3235 25.118 40.4174 25.4315 40.3291 25.7861C40.2154 26.2445 39.7136 27.0518 37.9702 28.2939C37.5357 28.6034 37.0902 28.8897 36.6852 29.1266ZM53.5052 28.7637C53.3125 29.3402 52.8609 30.69 53.421 30.9676C53.4792 30.999 53.5237 31.0536 53.5453 31.1199C53.567 31.1862 53.5639 31.2589 53.5369 31.3228C53.5098 31.3867 53.4609 31.4367 53.4003 31.4624C53.3398 31.488 53.2724 31.4872 53.2125 31.4601C52.5017 31.1099 52.5916 30.1598 52.7937 29.3687C51.9963 30.391 51.4978 30.9098 51.1026 30.9098C51.0424 30.9106 50.9829 30.8957 50.9292 30.8663C50.8755 30.837 50.8291 30.7941 50.794 30.7412C50.5814 30.4256 50.7203 29.7873 51.1346 28.3832C51.1487 28.335 51.1633 28.2851 51.1783 28.2348C51.1418 28.2864 51.1027 28.3448 51.0608 28.4099C50.8061 28.8039 50.5405 29.3039 50.306 29.7452C50.144 30.0517 50.0014 30.3196 49.882 30.5166C49.7625 30.7137 49.5864 31.0057 49.3357 30.9045C49.2979 30.8887 49.2633 30.8648 49.2341 30.8344C49.2049 30.804 49.1816 30.7675 49.1656 30.7272C49.1251 30.6252 49.0441 30.4352 49.3575 29.0723C49.411 28.8394 49.4689 28.603 49.5232 28.3911C49.0996 28.7956 48.7274 29.0298 48.4168 29.1621C48.3804 29.3883 48.313 29.6075 48.2167 29.8122C47.7571 30.7951 47.2011 31.2609 46.6515 31.1256C46.4405 31.0731 46.2826 30.9107 46.2061 30.669C46.0161 30.0696 46.3474 29.1205 47.0925 28.1297C47.1258 28.0855 47.1711 28.0537 47.222 28.0389C47.2729 28.0241 47.3268 28.0271 47.376 28.0474C47.4274 28.0028 47.4815 27.9622 47.538 27.9257C47.7356 27.8009 47.9061 27.772 48.045 27.8381C48.218 27.9257 48.3143 28.1253 48.3646 28.2799C48.3937 28.3711 48.4149 28.465 48.4277 28.5605C48.7485 28.3854 49.1547 28.0728 49.6305 27.5181C49.7317 27.3999 49.9205 27.1805 50.129 27.3219C50.3376 27.4634 50.2379 27.7282 50.1918 27.8565C50.1266 28.0369 49.8715 29.0171 49.7265 29.747C49.7759 29.655 49.8249 29.5627 49.8715 29.4747C50.568 28.1612 51.0621 27.2992 51.5586 27.2567C51.6022 27.2529 51.646 27.2608 51.6861 27.2797C51.7262 27.2985 51.7614 27.3278 51.7886 27.3648C51.9076 27.5273 51.8639 27.6932 51.612 28.5469C51.4812 28.9896 51.1941 29.9633 51.1937 30.331C51.2864 30.278 51.4581 30.1476 51.7469 29.8284C52.0567 29.486 52.3875 29.0535 52.6532 28.7063C53.0719 28.159 53.1643 28.0496 53.2809 28.0058C53.3279 27.9871 53.3789 27.9834 53.4277 27.9952C53.4766 28.0069 53.5214 28.0335 53.5567 28.0719C53.6875 28.2155 53.6377 28.3648 53.504 28.7637H53.5052ZM47.866 29.3092C47.7903 29.3171 47.714 29.3187 47.638 29.314C47.3951 29.2973 47.1962 29.208 47.0784 29.0662C46.6515 29.7991 46.6135 30.2921 46.677 30.4899C46.7058 30.5806 46.7463 30.5911 46.7617 30.5946C47.0553 30.6681 47.4311 30.2837 47.7664 29.5666C47.8054 29.4835 47.8387 29.3975 47.866 29.3092ZM47.9381 28.7501C47.9352 28.6128 47.9035 28.4781 47.8454 28.356C47.7239 28.4095 47.5214 28.6087 47.4769 28.7229C47.5521 28.7602 47.6344 28.7777 47.717 28.7742C47.7913 28.7748 47.8654 28.7668 47.9381 28.7501ZM57.8878 27.8955C57.2148 28.6997 56.6324 29.0272 56.1809 29.1354C56.1393 29.2764 56.087 29.4134 56.0246 29.5451C55.4843 30.6891 54.9652 30.9755 54.5812 30.9755C54.5227 30.9754 54.4644 30.9688 54.4071 30.9558C54.2006 30.9081 54.0426 30.7531 53.9669 30.518C53.7644 29.905 54.1196 28.8911 54.9194 27.8092C54.952 27.7641 54.997 27.7313 55.0479 27.7155C55.0989 27.6998 55.1531 27.7019 55.2029 27.7217C55.4025 27.5391 55.6726 27.3775 55.8938 27.4848C56.0266 27.5492 56.1331 27.695 56.2019 27.9064C56.2637 28.1102 56.2902 28.3245 56.2801 28.5386C56.6126 28.4073 57.0281 28.1139 57.5181 27.5286C57.5632 27.4774 57.6249 27.4473 57.6903 27.4446C57.7556 27.442 57.8193 27.467 57.8678 27.5144C57.9162 27.5618 57.9457 27.6278 57.9498 27.6983C57.9539 27.7689 57.9324 27.8383 57.8899 27.892L57.8878 27.8955ZM55.6342 29.1695C55.2737 29.1231 55.0206 28.9432 54.8935 28.7794C54.7469 29.0264 54.6248 29.2894 54.529 29.564C54.4205 29.8862 54.3873 30.1769 54.4407 30.3367C54.4666 30.4151 54.499 30.4243 54.5132 30.4243C54.8145 30.4934 55.2142 30.074 55.5803 29.2973C55.5973 29.2549 55.6176 29.212 55.6342 29.1695ZM55.6973 28.0115C55.5584 28.078 55.3256 28.3236 55.2904 28.4462C55.3434 28.5036 55.4928 28.6179 55.7435 28.6362H55.7678C55.7998 28.3368 55.7484 28.1082 55.6973 28.0115ZM54.4164 26.5479C54.4751 26.3032 54.3597 26.0584 54.1577 26.0015C53.9556 25.9446 53.7446 26.0969 53.6851 26.3421C53.6255 26.5873 53.7422 26.8312 53.9438 26.8881C54.1455 26.945 54.3569 26.7926 54.4164 26.5479ZM46.1757 27.6118C46.0708 27.5531 45.91 27.5649 45.8112 27.5798C45.3111 27.6555 44.7559 28.0303 44.5668 28.2615C44.634 28.2934 44.7287 28.3293 44.8033 28.3587C45.1653 28.4979 45.6614 28.6892 45.8618 29.1678C45.9833 29.4611 45.9732 29.8126 45.8266 30.2124C45.3848 31.4172 44.5149 31.7141 44.0257 31.7141C43.9426 31.7157 43.8598 31.7048 43.7795 31.6817C43.4839 31.5871 43.2696 31.3883 43.1599 31.1073C42.8849 30.4041 43.3462 29.4151 43.3996 29.3048C43.4149 29.2732 43.4358 29.2451 43.4611 29.2222C43.4864 29.1993 43.5156 29.182 43.5471 29.1713C43.5785 29.1606 43.6116 29.1567 43.6445 29.1599C43.6774 29.163 43.7093 29.1731 43.7386 29.1896C43.7678 29.2061 43.7938 29.2287 43.815 29.2561C43.8362 29.2834 43.8522 29.315 43.862 29.349C43.8719 29.383 43.8755 29.4188 43.8726 29.4544C43.8697 29.4899 43.8604 29.5245 43.8451 29.5561C43.7305 29.7938 43.4673 30.4991 43.6232 30.8967C43.675 31.028 43.7706 31.1134 43.9241 31.1624C43.9694 31.1769 44.2201 31.2018 44.5315 31.0438C44.7846 30.9159 45.1337 30.6331 45.3609 30.0127C45.4557 29.7549 45.4706 29.546 45.4058 29.3915C45.2929 29.1222 44.9284 28.9817 44.6364 28.8687C44.3529 28.7601 44.131 28.6743 44.046 28.4598C44.0263 28.4093 44.0164 28.355 44.0168 28.3002C44.0172 28.2454 44.028 28.1912 44.0484 28.1411C43.3312 28.2724 42.7549 28.7663 42.3325 29.6104C42.1727 29.9348 42.0455 30.2768 41.9531 30.6305C41.8834 30.9658 41.8316 31.1996 41.8316 31.2018C41.8188 31.2612 41.7879 31.3143 41.7438 31.3523C41.6997 31.3904 41.645 31.4112 41.5886 31.4115C41.5731 31.4116 41.5577 31.4101 41.5424 31.4072C41.4789 31.3944 41.4224 31.3557 41.3847 31.299C41.347 31.2423 41.3309 31.172 41.34 31.1029C41.371 30.8913 41.4148 30.6822 41.4712 30.4768C41.5927 29.8844 41.7109 29.3017 41.7951 28.8481C41.2735 29.6078 39.993 31.3297 39.1025 31.3362C38.8478 31.3397 38.6368 31.2119 38.4914 30.9707C38.4744 30.9425 38.459 30.9133 38.4452 30.8831C38.3059 30.9406 38.1614 30.9819 38.0139 31.0061C37.615 31.0696 37.2631 30.9794 36.9971 30.7465C36.9465 30.7009 36.9147 30.6356 36.9083 30.5648C36.9019 30.494 36.9215 30.4233 36.963 30.368C37.0044 30.3127 37.0643 30.2772 37.1297 30.2692C37.1951 30.2612 37.2607 30.2814 37.3125 30.3253C37.5077 30.4965 37.762 30.4983 37.941 30.4702C38.0791 30.447 38.2139 30.4053 38.3424 30.3459C38.3363 29.7382 38.5995 29.0351 38.7068 28.7781C39.0199 28.0128 39.5605 27.1608 40.1344 27.0632C40.4069 27.0168 40.6345 27.1131 40.7596 27.3259C41.0346 27.7974 40.6649 28.575 40.3065 29.1441C39.8918 29.8008 39.3981 30.3209 38.8956 30.6462C38.9002 30.657 38.9054 30.6674 38.9113 30.6773C38.9753 30.7833 39.0413 30.7982 39.0989 30.7968C39.2414 30.7968 39.6699 30.6778 40.5701 29.6091C40.9422 29.1662 41.2879 28.6982 41.6052 28.2081L41.6506 28.1297C41.8202 27.8359 41.9438 27.6236 42.162 27.6481C42.2198 27.6564 42.2742 27.6825 42.3186 27.7234C42.363 27.7642 42.3955 27.818 42.4123 27.8784C42.4342 27.9467 42.4528 28.0097 42.3459 28.6275C42.8946 27.934 43.6049 27.568 44.4343 27.5623C44.468 27.5624 44.5013 27.5697 44.5323 27.5837C44.8774 27.3211 45.3382 27.1048 45.7399 27.0426C46.2324 26.9669 46.4891 27.1481 46.6183 27.3141C46.7475 27.48 46.788 27.7956 46.2445 28.36C46.2211 28.3863 46.193 28.4072 46.162 28.4215C46.1309 28.4357 46.0975 28.4431 46.0637 28.443C46.0299 28.443 45.9965 28.4356 45.9655 28.4212C45.9344 28.4069 45.9064 28.3859 45.883 28.3596C45.8596 28.3332 45.8414 28.302 45.8295 28.2679C45.8176 28.2337 45.8121 28.1973 45.8135 28.1609C45.8149 28.1244 45.8231 28.0886 45.8376 28.0556C45.8521 28.0227 45.8726 27.9932 45.8979 27.969C46.0031 27.8621 46.0964 27.7422 46.1757 27.6118ZM38.8684 30.0197C39.228 29.7352 39.5816 29.3315 39.8926 28.8376C40.385 28.057 40.3786 27.6928 40.3381 27.6183C40.3279 27.6013 40.2976 27.5951 40.2668 27.5951C40.2492 27.5953 40.2316 27.5967 40.2141 27.5995C39.88 27.6564 39.4334 28.3464 39.1649 29.0005C39.0257 29.325 38.9261 29.6676 38.8684 30.0197ZM57.2945 32.4391H33.6767V32.9811H57.2941L57.2945 32.4391Z" fill="black"/>
</g>
<rect x="31" y="52.2031" width="40" height="4.26144" rx="2.13072" fill="#E7EBEB"/>
<rect x="19.5" y="42.0508" width="63" height="24.5686" rx="3.5" stroke="#EAEDEE"/>
<rect x="5" y="42.6163" width="10" height="10.6536" rx="2" fill="#73DAF5"/>
<path d="M13.2411 45.1183L8.75984 49.94L7.17556 48.2354C7.10056 48.1547 6.97897 48.1547 6.90396 48.2354L6.72291 48.4302C6.64792 48.5109 6.64792 48.6417 6.72291 48.7224L8.62405 50.768C8.69904 50.8487 8.82064 50.8487 8.89565 50.768L13.6938 45.6054C13.7687 45.5247 13.7687 45.3938 13.6938 45.3131L13.5127 45.1183C13.4377 45.0376 13.3161 45.0376 13.2411 45.1183Z" fill="white"/>
<rect x="31" y="82.0314" width="40" height="4.26144" rx="2.13072" fill="#E7EBEB"/>
<rect x="19.5" y="71.8791" width="63" height="24.5686" rx="3.5" stroke="#EAEDEE"/>
<rect x="5" y="72.4446" width="10" height="10.6536" rx="2" fill="#73DAF5"/>
<path d="M13.2411 74.9466L8.75984 79.7683L7.17556 78.0637C7.10056 77.983 6.97897 77.983 6.90396 78.0637L6.72291 78.2585C6.64792 78.3392 6.64792 78.47 6.72291 78.5507L8.62405 80.5963C8.69904 80.677 8.82064 80.677 8.89565 80.5963L13.6938 75.4337C13.7687 75.353 13.7687 75.2222 13.6938 75.1414L13.5127 74.9466C13.4377 74.8659 13.3161 74.8659 13.2411 74.9466Z" fill="white"/>
<rect x="31" y="111.863" width="40" height="4.26144" rx="2.13072" fill="#E7EBEB"/>
<rect x="19.5" y="101.711" width="63" height="24.5686" rx="3.5" stroke="#EAEDEE"/>
<rect x="5" y="102.276" width="10" height="10.6536" rx="2" fill="#73DAF5"/>
<path d="M13.2411 104.778L8.75984 109.6L7.17556 107.896C7.10056 107.815 6.97897 107.815 6.90396 107.896L6.72291 108.09C6.64792 108.171 6.64792 108.302 6.72291 108.383L8.62405 110.428C8.69904 110.509 8.82064 110.509 8.89565 110.428L13.6938 105.266C13.7687 105.185 13.7687 105.054 13.6938 104.973L13.5127 104.778C13.4377 104.698 13.3161 104.698 13.2411 104.778Z" fill="white"/>
<rect x="19" y="5.32812" width="54" height="10.6536" rx="5.3268" fill="#E7E9EC"/>
<rect x="37" width="17" height="10.6536" rx="5.3268" fill="#E7E9EC"/>
<rect x="43.5" y="55.9641" width="151" height="107.536" rx="10.5345" fill="#FFFEFF" stroke="#EAEDEE"/>
<rect x="58" y="152.348" width="50.0719" height="10" rx="5" transform="rotate(-90 58 152.348)" fill="#D5F0F7"/>
<rect x="82" y="152.348" width="79.902" height="10" rx="5" transform="rotate(-90 82 152.348)" fill="#D5F0F7"/>
<rect x="106" y="152.348" width="31.9608" height="10" rx="5" transform="rotate(-90 106 152.348)" fill="#E7E9EC"/>
<rect x="130" y="152.348" width="67.1176" height="10" rx="5" transform="rotate(-90 130 152.348)" fill="#E7E9EC"/>
<rect x="154" y="152.348" width="29.8301" height="10" rx="5" transform="rotate(-90 154 152.348)" fill="#E7E9EC"/>
<rect x="70" y="152.348" width="37.2876" height="10" rx="5" transform="rotate(-90 70 152.348)" fill="#D5F0F7"/>
<rect x="94" y="152.348" width="59.6601" height="10" rx="5" transform="rotate(-90 94 152.348)" fill="#E7E9EC"/>
<rect x="118" y="152.348" width="23.4379" height="10" rx="5" transform="rotate(-90 118 152.348)" fill="#E7E9EC"/>
<rect x="142" y="152.348" width="49.0065" height="10" rx="5" transform="rotate(-90 142 152.348)" fill="#E7E9EC"/>
<rect x="166" y="152.348" width="67.1176" height="10" rx="5" transform="rotate(-90 166 152.348)" fill="#E7E9EC"/>
<path d="M55.7225 116.923C54.6925 116.524 53.5341 117.035 53.1351 118.065C52.736 119.095 53.2475 120.253 54.2775 120.653L55.7225 116.923ZM93.5 133.703L92.7775 135.568C93.6237 135.895 94.5845 135.612 95.1179 134.878L93.5 133.703ZM117.5 100.676L118.701 99.0769C118.272 98.7553 117.732 98.619 117.203 98.6987C116.673 98.7784 116.197 99.0673 115.882 99.5007L117.5 100.676ZM176.483 120.13C177.224 119.311 177.161 118.046 176.342 117.305C175.523 116.564 174.258 116.627 173.517 117.445L176.483 120.13ZM161.5 133.703L160.299 135.302C161.126 135.923 162.289 135.811 162.983 135.045L161.5 133.703ZM54.2775 120.653L92.7775 135.568L94.2225 131.838L55.7225 116.923L54.2775 120.653ZM95.1179 134.878L119.118 101.852L115.882 99.5007L91.8821 132.527L95.1179 134.878ZM116.299 102.276L160.299 135.302L162.701 132.103L118.701 99.0769L116.299 102.276ZM162.983 135.045L176.483 120.13L173.517 117.445L160.017 132.36L162.983 135.045Z" fill="#72D7F1"/>
<defs>
<clipPath id="clip0_0_1706">
<rect width="25" height="8.52288" fill="white" transform="translate(33 24.5033)"/>
</clipPath>
</defs>
</svg>
