<svg width="228" height="156" viewBox="0 0 228 156" fill="none" xmlns="http://www.w3.org/2000/svg">
<rect x="0.5" y="0.5" width="227" height="155" rx="10.5345" fill="#FFFEFF" stroke="#EAEDEE"/>
<path d="M1 9C1 4.58172 4.58172 1 9 1H219C223.418 1 227 4.58172 227 9V60.8889H1V9Z" fill="#FCFCFC"/>
<path d="M10.4605 76.375C10.4605 71.9567 14.0422 68.375 18.4605 68.375H42.4558C47.4264 68.375 51.4558 72.4044 51.4558 77.375V136.306C51.4558 140.724 47.8741 144.306 43.4558 144.306H18.4605C14.0422 144.306 10.4605 140.724 10.4605 136.306V76.375Z" fill="#D5F0F7"/>
<path d="M55.6605 76.375C55.6605 71.9567 59.2422 68.375 63.6605 68.375H87.6558C92.6264 68.375 96.6558 72.4044 96.6558 77.375V136.306C96.6558 140.724 93.0741 144.306 88.6558 144.306H63.6605C59.2422 144.306 55.6605 140.724 55.6605 136.306V76.375Z" fill="#FCFCFC"/>
<path d="M100.859 76.375C100.859 71.9567 104.441 68.375 108.859 68.375H132.855C137.825 68.375 141.855 72.4044 141.855 77.375V136.306C141.855 140.724 138.273 144.306 133.855 144.306H108.859C104.441 144.306 100.859 140.724 100.859 136.306V76.375Z" fill="#FCFCFC"/>
<rect x="55.6605" y="22.3906" width="36.7907" height="10.6944" rx="5.34722" fill="#E7E9EC"/>
<rect x="55.6605" y="35.2227" width="56.7628" height="10.6944" rx="5.34722" fill="#E7E9EC"/>
<rect x="153.419" y="83.3477" width="36.7907" height="10.6944" rx="5.34722" fill="#E7E9EC"/>
<rect x="14.6641" y="125.055" width="32.586" height="10.6944" rx="5.34722" fill="white"/>
<rect x="59.8633" y="125.055" width="32.586" height="10.6944" rx="5.34722" fill="#E7E9EC"/>
<rect x="105.066" y="125.055" width="32.586" height="10.6944" rx="5.34722" fill="#E7E9EC"/>
<rect x="153.419" y="96.1797" width="56.7628" height="10.6944" rx="5.34722" fill="#E7E9EC"/>
<ellipse cx="30.9571" cy="33.6194" rx="16.293" ry="16.5764" fill="#E7E9EC"/>
<path d="M45.2501 93.5061C45.2501 101.589 38.8185 108.082 30.9571 108.082C23.0956 108.082 16.6641 101.589 16.6641 93.5061C16.6641 85.4231 23.0956 78.9297 30.9571 78.9297C38.8185 78.9297 45.2501 85.4231 45.2501 93.5061Z" stroke="white" stroke-width="4"/>
<path d="M30.4331 77.0703C29.3285 77.0706 28.4333 77.9662 28.4336 79.0708C28.4339 80.1754 29.3295 81.0706 30.4341 81.0703L30.4331 77.0703ZM43.1499 95.112C43.1499 96.2165 44.0453 97.112 45.1499 97.112C46.2544 97.112 47.1499 96.2165 47.1499 95.112H43.1499ZM30.4341 81.0703C34.192 81.0694 37.319 82.2614 39.5059 84.4824C41.6902 86.7007 43.1499 90.1627 43.1499 95.112H47.1499C47.1499 89.3648 45.4371 84.8049 42.3561 81.6759C39.2778 78.5497 35.0466 77.0692 30.4331 77.0703L30.4341 81.0703Z" fill="#73DAF5"/>
<path d="M90.4493 93.5061C90.4493 101.589 84.0178 108.082 76.1563 108.082C68.2949 108.082 61.8633 101.589 61.8633 93.5061C61.8633 85.4231 68.2949 78.9297 76.1563 78.9297C84.0178 78.9297 90.4493 85.4231 90.4493 93.5061Z" stroke="#E7E9EC" stroke-width="4"/>
<path d="M76.6837 105.945C75.5792 105.945 74.6837 106.841 74.6837 107.945C74.6837 109.05 75.5792 109.945 76.6837 109.945V105.945ZM76.6837 77.0703C75.5792 77.0703 74.6837 77.9657 74.6837 79.0703C74.6837 80.1749 75.5792 81.0703 76.6837 81.0703V77.0703ZM88.3488 93.5078C88.3488 100.482 83.024 105.945 76.6837 105.945V109.945C85.4375 109.945 92.3488 102.481 92.3488 93.5078H88.3488ZM76.6837 81.0703C83.024 81.0703 88.3488 86.5337 88.3488 93.5078H92.3488C92.3488 84.5347 85.4375 77.0703 76.6837 77.0703V81.0703Z" fill="#73DAF5"/>
<path d="M135.652 93.5061C135.652 101.589 129.221 108.082 121.359 108.082C113.498 108.082 107.066 101.589 107.066 93.5061C107.066 85.4231 113.498 78.9297 121.359 78.9297C129.221 78.9297 135.652 85.4231 135.652 93.5061Z" stroke="#E7E9EC" stroke-width="4"/>
</svg>
