<svg width="224" height="128" viewBox="0 0 224 128" fill="none" xmlns="http://www.w3.org/2000/svg">
<path d="M206.314 57.2417C206.349 57.9181 206.372 58.5978 206.383 59.2806L205.884 59.2891C205.889 59.6272 205.892 59.966 205.892 60.3055C205.892 60.6451 205.889 60.9839 205.884 61.322L206.383 61.3305C206.372 62.0133 206.349 62.693 206.314 63.3694L205.814 63.3438C205.78 64.0209 205.733 64.6947 205.676 65.3649L206.174 65.4077C206.115 66.0891 206.045 66.7668 205.964 67.4406L205.467 67.3805C205.386 68.053 205.293 68.7215 205.189 69.3858L205.683 69.4632C205.577 70.1376 205.46 70.8078 205.331 71.4734L204.841 71.3787C204.712 72.0438 204.573 72.7043 204.422 73.3601L204.909 73.4721C204.756 74.1381 204.592 74.7993 204.416 75.4553L203.933 75.3261C203.758 75.98 203.572 76.6288 203.375 77.2721L203.853 77.4185C203.653 78.0711 203.442 78.7181 203.22 79.3594L202.748 79.1959C202.527 79.8352 202.295 80.4686 202.052 81.096L202.518 81.2764C202.272 81.9135 202.015 82.5444 201.747 83.1688L201.287 82.9716C201.02 83.5934 200.743 84.2087 200.455 84.8172L200.907 85.031C200.615 85.6479 200.313 86.2579 200 86.8607L199.556 86.6305C199.245 87.2306 198.923 87.8235 198.592 88.4089L199.027 88.6553C198.691 89.249 198.344 89.8351 197.988 90.4133L197.562 90.1508C197.207 90.7265 196.842 91.2944 196.467 91.854L196.883 92.1321C196.503 92.6991 196.114 93.2578 195.715 93.8078L195.31 93.5142C194.913 94.0612 194.507 94.5996 194.091 95.129L194.484 95.4378C194.063 95.9741 193.633 96.5014 193.193 97.0193L192.812 96.6957C192.375 97.2106 191.928 97.7161 191.473 98.2119L191.842 98.55C191.38 99.0526 190.91 99.5453 190.431 100.028L190.076 99.6757C189.6 100.155 189.116 100.624 188.623 101.083L188.964 101.449C188.465 101.914 187.957 102.367 187.441 102.811L187.116 102.431C186.604 102.871 186.084 103.3 185.556 103.718L185.866 104.11C185.332 104.533 184.789 104.944 184.239 105.344L183.945 104.94C183.4 105.337 182.846 105.722 182.286 106.095L182.563 106.511C181.996 106.889 181.421 107.254 180.84 107.608L180.58 107.18C180.004 107.53 179.421 107.868 178.831 108.193L179.072 108.631C178.476 108.96 177.873 109.276 177.263 109.578L177.041 109.131C176.438 109.43 175.828 109.717 175.212 109.991L175.415 110.448C174.793 110.724 174.165 110.987 173.531 111.237L173.348 110.771C172.722 111.018 172.09 111.251 171.452 111.47L171.615 111.943C170.972 112.164 170.323 112.371 169.67 112.564L169.528 112.085C168.883 112.275 168.234 112.452 167.579 112.614L167.699 113.099C167.04 113.263 166.376 113.412 165.707 113.547L165.608 113.056C164.949 113.189 164.286 113.307 163.619 113.411L163.695 113.905C163.024 114.01 162.349 114.1 161.669 114.175L161.615 113.678C160.948 113.751 160.278 113.811 159.604 113.855L159.637 114.354C158.961 114.398 158.281 114.428 157.598 114.443L157.587 113.943C157.25 113.951 156.912 113.955 156.573 113.955C156.234 113.955 155.896 113.951 155.559 113.943L155.548 114.443C154.865 114.428 154.185 114.398 153.509 114.354L153.542 113.855C152.868 113.811 152.198 113.751 151.532 113.678L151.477 114.175C150.797 114.1 150.122 114.01 149.451 113.905L149.527 113.411C148.86 113.307 148.197 113.189 147.538 113.056L147.44 113.547C146.771 113.412 146.106 113.263 145.447 113.099L145.567 112.614C144.913 112.452 144.263 112.275 143.618 112.085L143.476 112.564C142.823 112.371 142.174 112.164 141.531 111.943L141.694 111.47C141.056 111.251 140.424 111.018 139.798 110.771L139.615 111.237C138.981 110.987 138.353 110.724 137.731 110.448L137.934 109.991C137.318 109.717 136.709 109.43 136.105 109.131L135.883 109.579C135.273 109.276 134.67 108.96 134.074 108.631L134.315 108.193C133.725 107.868 133.142 107.53 132.566 107.18L132.306 107.608C131.725 107.254 131.15 106.889 130.583 106.511L130.86 106.095C130.3 105.722 129.747 105.337 129.201 104.94L128.907 105.344C128.357 104.944 127.815 104.533 127.28 104.11L127.59 103.718C127.063 103.3 126.542 102.871 126.031 102.431L125.705 102.811C125.189 102.367 124.681 101.914 124.182 101.449L124.523 101.083C124.03 100.624 123.546 100.155 123.07 99.6757L122.715 100.028C122.236 99.5453 121.766 99.0526 121.305 98.55L121.673 98.2119C121.218 97.7161 120.771 97.2106 120.334 96.6957L119.953 97.0193C119.513 96.5014 119.083 95.9741 118.662 95.4378L119.055 95.129C118.639 94.5996 118.233 94.0612 117.836 93.5142L117.431 93.8078C117.032 93.2578 116.643 92.6991 116.263 92.1321L116.679 91.854C116.304 91.2944 115.939 90.7266 115.584 90.1508L115.159 90.4133C114.802 89.8351 114.455 89.249 114.119 88.6553L114.554 88.4089C114.223 87.8235 113.901 87.2306 113.59 86.6305L113.146 86.8607C112.833 86.2579 112.531 85.6479 112.239 85.031L112.691 84.8172C112.403 84.2087 112.126 83.5934 111.859 82.9716L111.399 83.1688C111.131 82.5444 110.874 81.9135 110.628 81.2764L111.094 81.096C110.851 80.4686 110.619 79.8352 110.398 79.1959L109.926 79.3594C109.704 78.7181 109.493 78.0711 109.293 77.4185L109.771 77.2721C109.574 76.6287 109.388 75.98 109.213 75.326L108.73 75.4553C108.554 74.7993 108.39 74.1381 108.237 73.4721L108.724 73.3601C108.574 72.7043 108.434 72.0438 108.306 71.3787L107.815 71.4734C107.686 70.8077 107.569 70.1376 107.463 69.4632L107.957 69.3858C107.853 68.7214 107.76 68.0529 107.679 67.3805L107.183 67.4406C107.101 66.7668 107.031 66.0891 106.972 65.4077L107.47 65.3648C107.413 64.6947 107.366 64.0209 107.332 63.3438L106.832 63.3694C106.798 62.693 106.774 62.0133 106.763 61.3305L107.263 61.3219C107.257 60.9839 107.254 60.6451 107.254 60.3055C107.254 59.966 107.257 59.6272 107.263 59.2891L106.763 59.2806C106.774 58.5978 106.798 57.9181 106.832 57.2417L107.332 57.2673C107.366 56.5902 107.413 55.9164 107.47 55.2462L106.972 55.2034C107.031 54.522 107.101 53.8443 107.183 53.1705L107.679 53.2306C107.76 52.5581 107.853 51.8896 107.957 51.2253L107.463 51.1479C107.569 50.4735 107.686 49.8033 107.815 49.1377L108.306 49.2324C108.434 48.5673 108.574 47.9067 108.724 47.251L108.237 47.139C108.39 46.4729 108.554 45.8118 108.73 45.1558L109.213 45.285C109.388 44.6311 109.574 43.9823 109.771 43.339L109.293 43.1926C109.493 42.54 109.704 41.893 109.926 41.2517L110.398 41.4151C110.619 40.7759 110.851 40.1424 111.094 39.5151L110.628 39.3347C110.874 38.6976 111.131 38.0667 111.399 37.4423L111.859 37.6395C112.126 37.0177 112.403 36.4024 112.691 35.7938L112.239 35.58C112.531 34.9632 112.833 34.3532 113.146 33.7504L113.59 33.9806C113.901 33.3805 114.223 32.7876 114.554 32.2022L114.119 31.9557C114.455 31.3621 114.802 30.776 115.159 30.1978L115.584 30.4602C115.939 29.8845 116.304 29.3167 116.679 28.7571L116.263 28.479C116.643 27.912 117.032 27.3533 117.431 26.8032L117.836 27.0969C118.233 26.5499 118.639 26.0115 119.055 25.4821L118.662 25.1733C119.083 24.637 119.513 24.1097 119.953 23.5917L120.334 23.9154C120.771 23.4005 121.218 22.895 121.673 22.3992L121.305 22.0611C121.766 21.5585 122.236 21.0658 122.715 20.5832L123.07 20.9354C123.546 20.4561 124.03 19.9868 124.523 19.528L124.182 19.1621C124.681 18.6976 125.189 18.2436 125.705 17.8005L126.031 18.1797C126.542 17.74 127.063 17.311 127.59 16.8932L127.28 16.5011C127.815 16.0783 128.357 15.6667 128.907 15.2667L129.201 15.6711C129.747 15.2745 130.3 14.8893 130.86 14.516L130.583 14.0998C131.15 13.7223 131.725 13.3566 132.306 13.0033L132.566 13.4307C133.142 13.0808 133.725 12.7431 134.315 12.418L134.074 11.9801C134.67 11.6515 135.273 11.3355 135.883 11.0326L136.105 11.4804C136.709 11.1807 137.318 10.8938 137.934 10.6202L137.731 10.1633C138.353 9.88692 138.981 9.62385 139.615 9.37437L139.798 9.83966C140.424 9.59329 141.056 9.36034 141.694 9.14111L141.532 8.66827C142.174 8.44728 142.823 8.24007 143.476 8.04697L143.618 8.52649C144.263 8.3361 144.913 8.15957 145.567 7.99723L145.447 7.51192C146.106 7.34846 146.771 7.1992 147.44 7.06448L147.538 7.55464C148.197 7.42201 148.86 7.30362 149.527 7.19976L149.451 6.7057C150.122 6.60128 150.797 6.51139 151.477 6.43635L151.532 6.93333C152.198 6.85973 152.868 6.80057 153.542 6.75612L153.509 6.25721C154.186 6.21263 154.865 6.1827 155.548 6.16772L155.559 6.6676C155.896 6.66021 156.234 6.65649 156.573 6.65649C156.912 6.65649 157.25 6.66021 157.587 6.6676L157.598 6.16772C158.281 6.1827 158.961 6.21263 159.637 6.25721L159.604 6.75613C160.278 6.80057 160.948 6.85974 161.615 6.93333L161.669 6.43635C162.349 6.5114 163.024 6.60128 163.696 6.70571L163.619 7.19976C164.286 7.30362 164.949 7.42201 165.608 7.55464L165.707 7.06449C166.376 7.19921 167.04 7.34846 167.699 7.51192L167.579 7.99723C168.234 8.15957 168.883 8.3361 169.528 8.52649L169.67 8.04697C170.323 8.24007 170.972 8.44728 171.615 8.66827L171.452 9.14111C172.09 9.36034 172.722 9.5933 173.348 9.83966L173.531 9.37437C174.165 9.62385 174.793 9.88692 175.415 10.1633L175.212 10.6202C175.828 10.8938 176.438 11.1807 177.041 11.4804L177.263 11.0326C177.873 11.3355 178.476 11.6515 179.072 11.9801L178.831 12.418C179.421 12.7431 180.004 13.0808 180.58 13.4307L180.84 13.0033C181.421 13.3566 181.996 13.7223 182.563 14.0998L182.286 14.516C182.846 14.8893 183.4 15.2745 183.945 15.6711L184.239 15.2667C184.789 15.6667 185.332 16.0783 185.866 16.5011L185.556 16.8932C186.084 17.311 186.604 17.74 187.116 18.1797L187.441 17.8005C187.957 18.2436 188.465 18.6976 188.964 19.1621L188.623 19.528C189.116 19.9868 189.6 20.4561 190.076 20.9354L190.431 20.5832C190.91 21.0658 191.38 21.5585 191.842 22.0611L191.473 22.3992C191.928 22.895 192.375 23.4005 192.812 23.9154L193.193 23.5917C193.633 24.1097 194.063 24.637 194.484 25.1733L194.091 25.4821C194.507 26.0115 194.913 26.5499 195.31 27.0969L195.715 26.8032C196.114 27.3533 196.503 27.912 196.883 28.479L196.467 28.7571C196.842 29.3167 197.207 29.8845 197.562 30.4602L197.988 30.1978C198.344 30.776 198.691 31.3621 199.027 31.9557L198.592 32.2022C198.923 32.7876 199.245 33.3805 199.556 33.9806L200 33.7504C200.313 34.3532 200.615 34.9632 200.907 35.58L200.455 35.7938C200.743 36.4024 201.02 37.0177 201.287 37.6395L201.747 37.4423C202.015 38.0667 202.272 38.6976 202.518 39.3347L202.052 39.5151C202.295 40.1425 202.527 40.7759 202.748 41.4151L203.22 41.2517C203.442 41.893 203.653 42.54 203.853 43.1926L203.375 43.339C203.572 43.9823 203.758 44.6311 203.933 45.285L204.416 45.1558C204.592 45.8118 204.756 46.473 204.909 47.139L204.422 47.251C204.573 47.9068 204.712 48.5673 204.841 49.2324L205.331 49.1377C205.46 49.8033 205.577 50.4735 205.683 51.1479L205.189 51.2253C205.293 51.8896 205.386 52.5582 205.467 53.2306L205.964 53.1705C206.045 53.8443 206.115 54.522 206.174 55.2034L205.676 55.2463C205.733 55.9164 205.78 56.5902 205.814 57.2673L206.314 57.2417Z" stroke="#73DAF5" stroke-linejoin="round" stroke-dasharray="2 2"/>
<path d="M26.6409 0.5C20.8228 0.5 16.1064 5.21646 16.1064 11.0345V87.5377C16.1064 90.5752 18.5688 93.0377 21.6064 93.0377H139.713C142.75 93.0377 145.213 90.5752 145.213 87.5377V11.0345C145.213 5.21645 140.496 0.5 134.678 0.5H26.6409Z" fill="#FFFEFF" stroke="#EAEDEE"/>
<path d="M6.62205 126.559C3.23666 126.559 1.06359 122.961 2.63897 119.965L13.6822 98.9593C15.503 95.4959 19.0936 93.327 23.0065 93.327H138.313C142.226 93.327 145.816 95.4959 147.637 98.9593L158.68 119.965C160.256 122.961 158.083 126.559 154.697 126.559H6.62205Z" fill="#FFFEFF" stroke="#EAEDEE"/>
<rect x="20.1641" y="110.586" width="7.11702" height="5.15705" rx="2.57853" fill="#E7E9EC"/>
<rect x="20.1641" y="98.9835" width="120.989" height="5.15705" rx="2.57853" fill="#FCFCFC"/>
<rect x="58.1211" y="110.586" width="7.11702" height="5.15705" rx="2.57853" fill="#E7E9EC"/>
<rect x="96.0781" y="110.586" width="7.11702" height="5.15705" rx="2.57853" fill="#E7E9EC"/>
<rect x="29.6523" y="110.586" width="7.11702" height="5.15705" rx="2.57853" fill="#E7E9EC"/>
<rect x="67.6133" y="110.586" width="7.11702" height="5.15705" rx="2.57853" fill="#E7E9EC"/>
<rect x="105.57" y="110.586" width="7.11702" height="5.15705" rx="2.57853" fill="#E7E9EC"/>
<rect x="39.1445" y="110.586" width="7.11702" height="5.15705" rx="2.57853" fill="#E7E9EC"/>
<rect x="77.1016" y="110.586" width="7.11702" height="5.15705" rx="2.57853" fill="#E7E9EC"/>
<rect x="115.059" y="110.586" width="7.11702" height="5.15705" rx="2.57853" fill="#E7E9EC"/>
<rect x="134.039" y="110.586" width="7.11702" height="5.15705" rx="2.57853" fill="#73DAF5"/>
<rect x="48.6328" y="110.586" width="7.11702" height="5.15705" rx="2.57853" fill="#E7E9EC"/>
<rect x="86.5898" y="110.586" width="7.11702" height="5.15705" rx="2.57853" fill="#E7E9EC"/>
<rect x="124.547" y="110.586" width="7.11702" height="5.15705" rx="2.57853" fill="#E7E9EC"/>
<path d="M22.5391 15.4453C22.5391 11.027 26.1208 7.44531 30.5391 7.44531H130.784C135.202 7.44531 138.784 11.027 138.784 15.4453V88.6689H22.5391V15.4453Z" fill="#FCFCFC"/>
<rect width="4.74468" height="5.15705" rx="2.37234" transform="matrix(-1 0 0 1 83.0312 3.57812)" fill="#E7E9EC"/>
<rect x="27.2812" y="28.0751" width="11.8617" height="12.8926" rx="2" fill="#73DAF5"/>
<path d="M37.0566 31.103L31.741 36.938L29.8618 34.8751C29.7729 34.7775 29.6286 34.7775 29.5397 34.8751L29.3249 35.1109C29.2359 35.2085 29.2359 35.3668 29.3249 35.4645L31.58 37.94C31.6689 38.0376 31.8132 38.0376 31.9021 37.94L37.5935 31.6924C37.6825 31.5947 37.6825 31.4364 37.5935 31.3387L37.3787 31.103C37.2898 31.0053 37.1455 31.0053 37.0566 31.103Z" fill="white"/>
<path d="M84.2188 21.8906C84.2188 17.4724 87.8005 13.8906 92.2188 13.8906H122.479C126.898 13.8906 130.479 17.4723 130.479 21.8906V52.3041C130.479 56.7224 126.898 60.3041 122.479 60.3041H92.2188C87.8005 60.3041 84.2188 56.7224 84.2188 52.3041V21.8906Z" fill="#D5F0F7"/>
<rect x="27.2812" y="51.2803" width="33.2128" height="5.15705" rx="2.57853" fill="#E7EBEB"/>
<rect x="27.2812" y="60.3086" width="33.2128" height="5.15705" rx="2.57853" fill="#E7EBEB"/>
<rect x="118.617" y="74.4876" width="11.8617" height="6.44631" rx="3.22316" fill="#73DAF5"/>
<rect x="0.5" y="-0.5" width="38.9574" height="77.0665" rx="4.5" transform="matrix(-1 0 0 1 224 2.28857)" fill="#FFFEFF" stroke="#EAEDEE"/>
<rect x="189.789" y="13.8906" width="28.4681" height="21.9175" rx="4" fill="#D5F0F7"/>
<rect x="189.789" y="43.5467" width="28.4681" height="5.15705" rx="2.57853" fill="#E7EBEB"/>
<rect x="189.789" y="51.2803" width="28.4681" height="5.15705" rx="2.57853" fill="#E7EBEB"/>
<rect x="198.09" y="64.1758" width="10.6755" height="5.15705" rx="2.57853" fill="#73DAF5"/>
<path d="M194.532 1H213.51V3.44632C213.51 5.65546 211.72 7.44631 209.51 7.44631H198.532C196.323 7.44631 194.532 5.65545 194.532 3.44631V1Z" fill="#E7E9EC"/>
</svg>
