<svg width="1536" height="1354" viewBox="0 0 1536 1354" fill="none" xmlns="http://www.w3.org/2000/svg">
<path fill-rule="evenodd" clip-rule="evenodd" d="M0 458.007C120.234 390.122 266.738 278.891 435.113 97.3516C475.486 53.7532 550.741 -27.146 633.91 25.0107C715.767 76.3448 678.573 171.79 659.827 219.897C659.527 220.667 659.231 221.426 658.941 222.172C632.941 288.7 531.201 650.244 473.386 919.423C493.088 885.514 512.628 851.442 531.2 818.986C808.967 334.559 1005.99 16.6139 1203.98 0.95078C1221.37 -0.440333 1238.83 2.47049 1254.83 9.42643C1270.83 16.3824 1284.86 27.1694 1295.71 40.8352C1343.18 100.743 1325.74 161.942 1225.29 476.819C1173.13 640.071 1058.63 999.192 1058.47 1134.83C1095.46 1115.29 1163.93 1067.17 1279.07 949.458C1366.93 859.662 1459.02 753.045 1543 652.892V957.543C1311.55 1216.98 1152.71 1348.3 1022.14 1348.3C998.14 1348.59 974.427 1343.08 953.007 1332.26C931.586 1321.44 913.089 1305.62 899.081 1286.13C814.297 1169.71 869.688 934.279 1034.9 416.427C1036.49 411.421 1038.09 406.364 1039.71 401.266C1043.84 388.276 1048.04 375.023 1052.34 361.687C1037.8 380.741 1022.19 402.271 1005.5 426.277C903.926 571.605 797.986 756.01 704.482 918.778C639.885 1031.81 583.04 1130.63 535.399 1203.3L534.982 1203.93C487.349 1276.59 417.219 1383.56 317.546 1346.36C302.463 1340.52 288.696 1331.72 277.05 1320.49C265.405 1309.26 256.113 1295.83 249.72 1280.97L249.408 1280.24C233.164 1242.43 202.07 1170.05 326.268 670.59C347.584 584.685 370.677 497.488 392.317 419.334C245.069 549.394 113.405 631.725 0 683.011L0 458.007Z" fill="#D5F0F7"/>
</svg>
