<svg width="127" height="40" viewBox="0 0 127 40" fill="none" xmlns="http://www.w3.org/2000/svg">
<g clip-path="url(#clip0_0_1828)">
<path d="M18.6983 21.6982C17.1983 27.0405 15.9614 31.5281 15.8607 32.1364C15.8219 32.4456 15.671 32.7298 15.4365 32.9351C15.2021 33.1404 14.9004 33.2525 14.5888 33.25C14.5422 33.25 14.495 33.25 14.447 33.25C14.1137 33.2108 13.8093 33.0416 13.6 32.7792C13.3906 32.5168 13.2934 32.1824 13.3292 31.8487C13.3847 31.3473 14.3895 27.6529 15.6162 23.2598C13.882 24.0673 12.4559 24.5892 11.5765 24.6981C11.4349 24.7179 11.2921 24.7282 11.1491 24.7289C10.2882 24.7289 9.85462 24.318 9.63887 23.9564C9.50175 23.7202 9.4443 23.4461 9.47501 23.1747C9.50572 22.9034 9.62297 22.6491 9.80941 22.4495C9.99584 22.2499 10.2416 22.1157 10.5102 22.0666C10.7789 22.0175 11.0562 22.0562 11.3012 22.1769C12.0573 22.0701 13.9929 21.2749 16.5367 19.9557C17.8127 15.4209 19.1319 10.7956 19.7894 8.49429C19.8884 8.17756 20.1074 7.91209 20.3995 7.75453C20.6915 7.59698 21.0336 7.55982 21.3527 7.65099C21.6718 7.74216 21.9426 7.95444 22.1074 8.24251C22.2721 8.53059 22.3178 8.87165 22.2346 9.19291C21.4537 11.9257 20.5455 15.1147 19.664 18.2338C20.7613 17.5989 21.9243 16.8962 23.0914 16.138C29.4468 12.0285 33.7761 8.09978 34.6494 5.59502C34.9782 4.66011 34.7378 4.22861 34.2734 3.86903C33.1597 3.00397 29.7365 2.89712 23.4654 5.18613C14.0669 8.61552 4.13828 15.275 3.19104 18.7475C3.28781 18.7665 3.38627 18.7754 3.48487 18.7743C3.65504 18.7607 3.8262 18.7815 3.98815 18.8354C4.15011 18.8894 4.29954 18.9754 4.42755 19.0884C4.55557 19.2013 4.65953 19.3388 4.73326 19.4928C4.80698 19.6468 4.84896 19.814 4.85668 19.9845C4.86441 20.1551 4.83773 20.3254 4.77823 20.4854C4.71873 20.6454 4.62763 20.7918 4.51035 20.9159C4.39308 21.0399 4.25204 21.1391 4.09563 21.2075C3.93921 21.2759 3.77064 21.3121 3.59994 21.3139C3.33076 21.3263 1.94175 21.3468 1.13423 20.3893C0.902801 20.1063 0.741127 19.773 0.662247 19.416C0.583368 19.0591 0.589491 18.6887 0.680124 18.3345C1.31299 15.3695 5.35881 12.123 8.64026 9.90591C13.0027 7.00241 17.6883 4.61654 22.6024 2.79644C27.0858 1.15263 33.022 -0.330903 35.8432 1.85742C37.1583 2.8848 37.635 4.356 37.187 6.02036C36.6096 8.17169 34.0638 11.9607 25.2181 17.79C23.0133 19.2427 20.7531 20.5865 18.6983 21.6982ZM104.041 19.9948C103.063 22.7009 100.772 29.0357 103.613 30.3384C103.908 30.4859 104.134 30.7422 104.244 31.0532C104.354 31.3642 104.338 31.7057 104.201 32.0055C104.064 32.3054 103.815 32.5402 103.508 32.6605C103.201 32.7807 102.859 32.777 102.555 32.65C98.949 31.0062 99.4051 26.5474 100.43 22.8345C96.3847 27.6323 93.8552 30.0672 91.8498 30.0672C91.5445 30.0708 91.2428 30.0008 90.9702 29.8631C90.6977 29.7254 90.4623 29.5241 90.2841 29.2761C89.2053 27.7946 89.9101 24.7988 92.0121 18.2092C92.084 17.9832 92.158 17.7489 92.234 17.5126C92.0491 17.7551 91.8505 18.0291 91.6382 18.3345C90.3457 20.1838 88.9978 22.5304 87.8081 24.6015C86.9862 26.0399 86.2629 27.2974 85.6568 28.222C85.0506 29.1467 84.1568 30.5172 82.8849 30.0426C82.693 29.9681 82.5178 29.8562 82.3696 29.7133C82.2215 29.5704 82.1032 29.3995 82.0219 29.2104C81.8164 28.7316 81.4055 27.8398 82.9958 21.4434C83.2671 20.3503 83.5609 19.2407 83.8362 18.2462C81.687 20.1448 79.7986 21.2441 78.2226 21.8646C78.0379 22.9265 77.6958 23.955 77.2076 24.9159C74.8754 29.5289 72.0542 31.7151 69.2659 31.0802C68.1954 30.8336 67.3941 30.0713 67.0057 28.9371C66.042 26.1241 67.7228 21.6694 71.5036 17.0195C71.6721 16.8118 71.9019 16.6627 72.1602 16.5933C72.4184 16.524 72.692 16.5379 72.9419 16.6332C73.2024 16.4241 73.477 16.2332 73.7638 16.062C74.7665 15.4764 75.6316 15.3407 76.3364 15.651C77.2137 16.062 77.7028 16.9989 77.9576 17.7243C78.1055 18.1523 78.2128 18.5932 78.2781 19.0414C79.9055 18.2195 81.9664 16.7524 84.3807 14.149C84.8944 13.5942 85.852 12.5648 86.9102 13.2285C87.9684 13.8921 87.4629 15.1353 87.2286 15.7373C86.8978 16.5839 85.6033 21.1845 84.8677 24.6098C85.1184 24.1783 85.367 23.7447 85.6033 23.3317C89.1375 17.1674 91.6443 13.1216 94.1635 12.9223C94.3847 12.9046 94.6069 12.9416 94.8105 13.0301C95.014 13.1187 95.1926 13.2559 95.3306 13.4298C95.9347 14.1921 95.7127 14.9709 94.4347 18.9777C93.771 21.055 92.3142 25.6248 92.3121 27.3508C92.7827 27.1022 93.6539 26.4899 95.1189 24.992C96.6908 23.3851 98.3695 21.355 99.7175 19.7256C101.842 17.1572 102.311 16.6435 102.902 16.438C103.141 16.3504 103.399 16.333 103.647 16.388C103.896 16.443 104.123 16.5681 104.302 16.7483C104.965 17.4222 104.713 18.1229 104.035 19.9948H104.041ZM75.4282 22.555C75.0437 22.5924 74.6569 22.6 74.2713 22.5776C73.0385 22.4995 72.0296 22.0804 71.4317 21.4146C69.2659 24.8543 69.0728 27.1679 69.3954 28.0967C69.5413 28.522 69.7467 28.5713 69.8248 28.5878C71.3145 28.933 73.2214 27.1289 74.9227 23.7632C75.1205 23.3734 75.2894 22.9696 75.4282 22.555ZM75.7939 19.9311C75.7791 19.287 75.6182 18.6546 75.3234 18.0818C74.7069 18.3325 73.6796 19.2674 73.4535 19.8037C73.8352 19.9784 74.2526 20.0608 74.672 20.0441C75.049 20.0473 75.4251 20.0094 75.7939 19.9311ZM126.277 15.9202C122.862 19.6948 119.908 21.2317 117.616 21.7393C117.405 22.401 117.14 23.0443 116.823 23.6625C114.082 29.0316 111.448 30.3754 109.5 30.3754C109.203 30.3751 108.907 30.3441 108.617 30.283C107.569 30.059 106.767 29.3316 106.383 28.2282C105.356 25.3515 107.158 20.5927 111.216 15.5154C111.381 15.3035 111.61 15.1495 111.868 15.0757C112.127 15.0018 112.402 15.0119 112.654 15.1045C113.667 14.2476 115.038 13.4894 116.16 13.9928C116.834 14.2949 117.374 14.9791 117.723 15.9716C118.036 16.9279 118.171 17.9337 118.12 18.9386C119.807 18.3222 121.915 16.9455 124.401 14.1983C124.63 13.9581 124.943 13.8168 125.275 13.8044C125.606 13.792 125.929 13.9095 126.175 14.1319C126.421 14.3543 126.571 14.664 126.592 14.995C126.613 15.326 126.504 15.6521 126.288 15.9038L126.277 15.9202ZM114.843 21.8995C113.014 21.6817 111.73 20.8372 111.084 20.0687C110.341 21.228 109.721 22.4622 109.235 23.7509C108.684 25.2632 108.516 26.6275 108.787 27.3775C108.919 27.7453 109.083 27.7885 109.155 27.7885C110.684 28.1131 112.712 26.1447 114.569 22.4995C114.656 22.3002 114.758 22.0989 114.843 21.8995ZM115.163 16.4647C114.458 16.777 113.277 17.9297 113.098 18.5051C113.367 18.7743 114.125 19.3105 115.397 19.3968H115.521C115.683 17.9914 115.422 16.9188 115.163 16.4647ZM108.664 9.59564C108.962 8.44703 108.376 7.29842 107.351 7.0313C106.326 6.76418 105.255 7.47924 104.953 8.6299C104.651 9.78057 105.243 10.9251 106.266 11.1922C107.289 11.4593 108.362 10.7443 108.664 9.59564ZM66.8516 14.5887C66.3194 14.3134 65.5037 14.3688 65.0023 14.4387C62.4647 14.7942 59.6476 16.5531 58.688 17.638C59.0291 17.788 59.5099 17.9565 59.888 18.0941C61.725 18.7475 64.2421 19.6455 65.2592 21.8913C65.8756 23.268 65.8242 24.918 65.0804 26.794C62.8386 32.4487 58.425 33.8418 55.9429 33.8418C55.5214 33.8495 55.1009 33.7983 54.6936 33.6898C53.1936 33.2459 52.1066 32.3131 51.5498 30.9939C50.1546 27.694 52.495 23.0523 52.7662 22.5345C52.8437 22.3861 52.9496 22.2543 53.0779 22.1469C53.2063 22.0394 53.3545 21.9583 53.5142 21.9081C53.6739 21.8579 53.8419 21.8397 54.0087 21.8544C54.1754 21.8692 54.3376 21.9166 54.4861 21.9941C54.6345 22.0715 54.7662 22.1774 54.8736 22.3058C54.9811 22.4341 55.0623 22.5824 55.1124 22.7421C55.1626 22.9018 55.1809 23.0698 55.1661 23.2365C55.1513 23.4033 55.1039 23.5655 55.0265 23.7139C54.445 24.8296 53.1094 28.1398 53.9004 30.0056C54.1635 30.622 54.6484 31.0227 55.4271 31.2528C55.6573 31.3206 56.9292 31.4377 58.5093 30.696C59.7935 30.096 61.5647 28.7686 62.7174 25.857C63.1982 24.6468 63.2743 23.6666 62.9455 22.9413C62.3722 21.6776 60.5229 21.018 59.0415 20.4879C57.6031 19.9783 56.4771 19.5756 56.0456 18.5688C55.9459 18.3317 55.8956 18.0768 55.8977 17.8196C55.8998 17.5624 55.9543 17.3083 56.0579 17.0729C52.419 17.6893 49.495 20.0071 47.3519 23.9687C46.5412 25.4913 45.8957 27.0963 45.4266 28.7563C45.0732 30.3302 44.8102 31.4275 44.8102 31.4377C44.7454 31.7166 44.5885 31.9655 44.3648 32.1441C44.1411 32.3227 43.8636 32.4206 43.5773 32.422C43.4988 32.4223 43.4204 32.4154 43.3431 32.4014C43.0208 32.3416 42.7341 32.1597 42.5427 31.8937C42.3513 31.6276 42.27 31.2979 42.3157 30.9734C42.4733 29.9805 42.6957 28.9989 42.9815 28.0351C43.5979 25.255 44.1979 22.5201 44.6253 20.3913C41.9787 23.9564 35.4816 32.0377 30.9632 32.0685C29.6707 32.085 28.6002 31.485 27.8625 30.3528C27.7762 30.2207 27.698 30.0835 27.6283 29.9419C26.9216 30.212 26.1879 30.4055 25.44 30.5193C23.416 30.8172 21.6305 30.3939 20.2805 29.3008C20.0242 29.0867 19.8624 28.7804 19.83 28.448C19.7977 28.1156 19.8973 27.7838 20.1075 27.5243C20.3176 27.2647 20.6214 27.0983 20.9533 27.0608C21.2851 27.0234 21.6184 27.1179 21.8811 27.3241C22.8715 28.1275 24.1619 28.1357 25.0701 28.0042C25.7705 27.8953 26.4546 27.6993 27.1064 27.4207C27.0756 24.5687 28.4112 21.2687 28.9557 20.0626C30.544 16.4709 33.2871 12.4723 36.1987 12.0141C37.5815 11.7963 38.7363 12.2483 39.3712 13.2469C40.7664 15.4599 38.8904 19.1092 37.072 21.7804C34.9679 24.8625 32.4631 27.3036 29.9132 28.8302C29.9366 28.8806 29.9634 28.9294 29.9933 28.9761C30.318 29.4734 30.6529 29.5432 30.9447 29.5371C31.668 29.5371 33.8419 28.9782 38.4096 23.9625C40.2973 21.8838 42.0515 19.6877 43.6616 17.3873L43.8917 17.0195C44.7527 15.6407 45.3794 14.6442 46.4869 14.7593C46.7801 14.7981 47.0559 14.9208 47.2811 15.1125C47.5064 15.3042 47.6715 15.5568 47.7567 15.8401C47.8677 16.1606 47.9622 16.4565 47.4197 19.3557C50.2039 16.101 53.808 14.3832 58.0161 14.3565C58.1869 14.357 58.3559 14.3912 58.5134 14.4572C60.264 13.2243 62.6023 12.2093 64.6407 11.9175C67.1393 11.562 68.442 12.4127 69.0974 13.1915C69.7529 13.9702 69.9584 15.4517 67.2009 18.1003C67.0821 18.2237 66.9395 18.3218 66.7819 18.3888C66.6242 18.4558 66.4546 18.4902 66.2833 18.49C66.1119 18.4898 65.9424 18.455 65.7849 18.3877C65.6274 18.3204 65.4851 18.2219 65.3665 18.0982C65.248 17.9746 65.1556 17.8282 65.095 17.668C65.0344 17.5077 65.0068 17.3369 65.0139 17.1657C65.0209 16.9946 65.0625 16.8266 65.1361 16.6719C65.2096 16.5171 65.3137 16.3789 65.442 16.2654C65.9759 15.7636 66.449 15.2009 66.8516 14.5887ZM29.7755 25.8899C31.6001 24.5543 33.3939 22.6598 34.972 20.342C37.4706 16.6784 37.4377 14.9688 37.2322 14.6195C37.1809 14.5394 37.0268 14.5106 36.8706 14.5106C36.7812 14.5112 36.6919 14.518 36.6035 14.5312C34.9083 14.7983 32.6419 18.0366 31.2796 21.1064C30.5736 22.6292 30.0681 24.2371 29.7755 25.8899ZM123.267 37.2445H3.4335V39.7883H123.265L123.267 37.2445Z" fill="black"/>
</g>
<defs>
<clipPath id="clip0_0_1828">
<rect width="126.846" height="40" fill="white"/>
</clipPath>
</defs>
</svg>
