<svg width="24" height="24" viewBox="0 0 24 24" fill="none" xmlns="http://www.w3.org/2000/svg">
<path d="M2 12C2 17.5242 6.47581 22 12 22C17.5242 22 22 17.5242 22 12C22 6.47581 17.5242 2 12 2C6.47581 2 2 6.47581 2 12ZM12 3.29032C16.7863 3.29032 20.7097 7.16532 20.7097 12C20.7097 16.7863 16.8347 20.7097 12 20.7097C7.21371 20.7097 3.29032 16.8347 3.29032 12C3.29032 7.21371 7.16532 3.29032 12 3.29032ZM12.504 7.02016L17.1452 11.6573C17.3347 11.8468 17.3347 12.1532 17.1452 12.3427L12.504 16.9798C12.3145 17.1694 12.0081 17.1694 11.8185 16.9798L11.5403 16.7016C11.3508 16.5121 11.3508 16.1976 11.5484 16.0121L15 12.6855H7.32258C7.05645 12.6855 6.83871 12.4677 6.83871 12.2016V11.7984C6.83871 11.5323 7.05645 11.3145 7.32258 11.3145H14.996L11.5444 7.9879C11.3508 7.79839 11.3468 7.4879 11.5363 7.29839L11.8145 7.02016C12.0081 6.83065 12.3145 6.83065 12.504 7.02016Z" fill="black"/>
</svg>
