<svg width="24" height="24" viewBox="0 0 24 24" fill="none" xmlns="http://www.w3.org/2000/svg">
<path d="M12.0012 9.23063C10.4689 9.23063 9.23284 10.4669 9.23284 11.9996C9.23284 13.5323 10.4689 14.7686 12.0012 14.7686C13.5336 14.7686 14.7696 13.5323 14.7696 11.9996C14.7696 10.4669 13.5336 9.23063 12.0012 9.23063ZM12.0012 13.7998C11.011 13.7998 10.2014 12.9925 10.2014 11.9996C10.2014 11.0067 11.0086 10.1994 12.0012 10.1994C12.9939 10.1994 13.801 11.0067 13.801 11.9996C13.801 12.9925 12.9915 13.7998 12.0012 13.7998ZM15.5285 9.11736C15.5285 9.47644 15.2394 9.76322 14.8828 9.76322C14.5238 9.76322 14.2371 9.47403 14.2371 9.11736C14.2371 8.76069 14.5262 8.4715 14.8828 8.4715C15.2394 8.4715 15.5285 8.76069 15.5285 9.11736ZM17.3621 9.77286C17.3211 8.9077 17.1235 8.14135 16.4899 7.50995C15.8586 6.87856 15.0924 6.68094 14.2275 6.63757C13.336 6.58696 10.664 6.58696 9.77254 6.63757C8.90999 6.67853 8.14381 6.87615 7.51015 7.50754C6.87648 8.13894 6.68132 8.90529 6.63795 9.77045C6.58736 10.6621 6.58736 13.3347 6.63795 14.2264C6.67891 15.0915 6.87648 15.8579 7.51015 16.4893C8.14381 17.1207 8.90758 17.3183 9.77254 17.3617C10.664 17.4123 13.336 17.4123 14.2275 17.3617C15.0924 17.3207 15.8586 17.1231 16.4899 16.4893C17.1211 15.8579 17.3187 15.0915 17.3621 14.2264C17.4127 13.3347 17.4127 10.6645 17.3621 9.77286ZM16.2104 15.1831C16.0224 15.6554 15.6586 16.0193 15.184 16.2097C14.4732 16.4917 12.7867 16.4266 12.0012 16.4266C11.2158 16.4266 9.52679 16.4893 8.81843 16.2097C8.3462 16.0217 7.98238 15.6578 7.79204 15.1831C7.51015 14.4722 7.5752 12.7852 7.5752 11.9996C7.5752 11.214 7.51256 9.52463 7.79204 8.81612C7.97997 8.34378 8.34379 7.97988 8.81843 7.7895C9.5292 7.50754 11.2158 7.57261 12.0012 7.57261C12.7867 7.57261 14.4756 7.50995 15.184 7.7895C15.6562 7.97747 16.02 8.34137 16.2104 8.81612C16.4923 9.52704 16.4272 11.214 16.4272 11.9996C16.4272 12.7852 16.4923 14.4746 16.2104 15.1831Z" fill="black"/>
</svg>
