<svg width="24" height="24" viewBox="0 0 24 24" fill="none" xmlns="http://www.w3.org/2000/svg">
<path d="M9.01746 17.3996H6.77838V10.189H9.01746V17.3996ZM7.89671 9.20541C7.18073 9.20541 6.59999 8.61236 6.59999 7.89636C6.59999 7.55244 6.73661 7.22261 6.97979 6.97942C7.22298 6.73623 7.5528 6.59961 7.89671 6.59961C8.24063 6.59961 8.57045 6.73623 8.81364 6.97942C9.05682 7.22261 9.19344 7.55244 9.19344 7.89636C9.19344 8.61236 8.61246 9.20541 7.89671 9.20541ZM17.3976 17.3996H15.1633V13.8895C15.1633 13.053 15.1465 11.9802 13.9992 11.9802C12.8351 11.9802 12.6567 12.8891 12.6567 13.8293V17.3996H10.42V10.189H12.5675V11.1726H12.5988C12.8977 10.6061 13.6279 10.0082 14.7173 10.0082C16.9834 10.0082 17.4 11.5005 17.4 13.4387V17.3996H17.3976Z" fill="black"/>
</svg>
