<svg width="24" height="24" viewBox="0 0 24 24" fill="none" xmlns="http://www.w3.org/2000/svg">
<path d="M20.125 4.5H3.875C2.83984 4.5 2 5.33984 2 6.375V17.625C2 18.6602 2.83984 19.5 3.875 19.5H20.125C21.1602 19.5 22 18.6602 22 17.625V6.375C22 5.33984 21.1602 4.5 20.125 4.5ZM3.875 5.75H20.125C20.4688 5.75 20.75 6.03125 20.75 6.375V7.99219C19.8945 8.71484 18.6719 9.71094 14.8672 12.7305C14.207 13.2539 12.9063 14.5156 12 14.5C11.0937 14.5156 9.78906 13.2539 9.13281 12.7305C5.32813 9.71094 4.10547 8.71484 3.25 7.99219V6.375C3.25 6.03125 3.53125 5.75 3.875 5.75ZM20.125 18.25H3.875C3.53125 18.25 3.25 17.9688 3.25 17.625V9.61719C4.14062 10.3477 5.54687 11.4766 8.35547 13.707C9.15625 14.3477 10.5703 15.7578 12 15.75C13.4219 15.7617 14.8242 14.3633 15.6445 13.707C18.4531 11.4766 19.8594 10.3477 20.75 9.61719V17.625C20.75 17.9688 20.4688 18.25 20.125 18.25Z" fill="black"/>
</svg>
