<svg width="32" height="32" viewBox="0 0 32 32" fill="none" xmlns="http://www.w3.org/2000/svg">
<path d="M3.61907 8.61921H28.381C28.907 8.61921 29.3334 8.19284 29.3334 7.66683V5.28588C29.3334 4.75987 28.907 4.3335 28.381 4.3335H3.61907C3.09306 4.3335 2.66669 4.75987 2.66669 5.28588V7.66683C2.66669 8.19284 3.09306 8.61921 3.61907 8.61921ZM3.61907 18.143H28.381C28.907 18.143 29.3334 17.7167 29.3334 17.1906V14.8097C29.3334 14.2837 28.907 13.8573 28.381 13.8573H3.61907C3.09306 13.8573 2.66669 14.2837 2.66669 14.8097V17.1906C2.66669 17.7167 3.09306 18.143 3.61907 18.143ZM3.61907 27.6668H28.381C28.907 27.6668 29.3334 27.2405 29.3334 26.7144V24.3335C29.3334 23.8075 28.907 23.3811 28.381 23.3811H3.61907C3.09306 23.3811 2.66669 23.8075 2.66669 24.3335V26.7144C2.66669 27.2405 3.09306 27.6668 3.61907 27.6668Z" fill="black"/>
</svg>
