<svg width="24" height="24" viewBox="0 0 24 24" fill="none" xmlns="http://www.w3.org/2000/svg">
<path d="M20.1492 3.84748L16.6055 3.02835C16.0887 2.90882 15.5579 3.17601 15.3469 3.66467L13.7122 7.47908C13.5188 7.92556 13.6489 8.45289 14.0251 8.76226L15.92 10.3126C14.7247 12.7454 12.7454 14.7282 10.3091 15.9235L8.75875 14.0286C8.44938 13.6524 7.92204 13.5224 7.47556 13.7157L3.66467 15.3505C3.17601 15.5614 2.90882 16.0887 3.02835 16.6055L3.84397 20.1457C3.95998 20.6484 4.40294 21 4.91622 21C13.7825 21 21 13.8212 21 4.91622C21 4.40294 20.6484 3.95998 20.1492 3.84748ZM4.93731 19.875L4.12873 16.3735L7.90446 14.7563L9.99623 17.3157C13.6384 15.6071 15.6106 13.6278 17.3122 9.99975L14.7528 7.90798L16.37 4.13224L19.8715 4.94083C19.8645 13.1849 13.1813 19.8645 4.93731 19.875Z" fill="black"/>
</svg>
