<svg width="16" height="16" viewBox="0 0 16 16" fill="none" xmlns="http://www.w3.org/2000/svg">
<path d="M8 10.258C7.5843 10.258 7.24731 10.595 7.24731 11.0107C7.24731 11.4264 7.5843 11.7634 8 11.7634C8.41569 11.7634 8.75268 11.4264 8.75268 11.0107C8.75268 10.595 8.41569 10.258 8 10.258ZM8.20618 9.61282H7.77607C7.59793 9.61282 7.45349 9.46839 7.45349 9.29024V9.28C7.45349 7.38906 9.53521 7.56981 9.53521 6.39269C9.53521 5.85462 9.05776 5.31175 7.99112 5.31175C7.20768 5.31175 6.8012 5.57113 6.39943 6.08304C6.29438 6.21691 6.10228 6.24419 5.96266 6.14691L5.60959 5.90094C5.45838 5.79559 5.42518 5.58452 5.53849 5.43919C6.10908 4.70728 6.78607 4.23648 7.99112 4.23648C9.39758 4.23648 10.6105 5.03624 10.6105 6.39269C10.6105 8.20489 8.52876 8.10906 8.52876 9.28V9.29024C8.52876 9.46839 8.38432 9.61282 8.20618 9.61282ZM8 2.19347C11.1887 2.19347 13.8064 4.77613 13.8064 7.99992C13.8064 11.2067 11.2094 13.8064 8 13.8064C4.79451 13.8064 2.19354 11.2106 2.19354 7.99992C2.19354 4.79554 4.79037 2.19347 8 2.19347ZM8 1.33325C4.31836 1.33325 1.33333 4.31935 1.33333 7.99992C1.33333 11.6826 4.31836 14.6666 8 14.6666C11.6816 14.6666 14.6667 11.6826 14.6667 7.99992C14.6667 4.31935 11.6816 1.33325 8 1.33325Z" fill="black"/>
</svg>
