<svg width="28" height="21" viewBox="0 0 28 21" fill="none" xmlns="http://www.w3.org/2000/svg">
<path d="M27.7945 0.866324C27.0478 3.95966 26.3012 7.31966 25.5545 10.9463C24.8078 14.5197 24.2212 17.693 23.7945 20.4663H16.1945L15.6345 19.5863C16.3812 16.7597 17.3945 13.6663 18.6745 10.3063C19.9545 6.89299 21.2612 3.74633 22.5945 0.866324H27.7945ZM12.9945 0.866324C12.2478 3.95966 11.5012 7.31966 10.7545 10.9463C10.0078 14.5197 9.42115 17.693 8.99449 20.4663H1.47448L0.994485 19.5863C1.74115 16.7597 2.72782 13.6663 3.95449 10.3063C5.23449 6.89299 6.54115 3.74633 7.87449 0.866324H12.9945Z" fill="black"/>
</svg>
