<svg width="24" height="36" viewBox="0 0 24 36" fill="none" xmlns="http://www.w3.org/2000/svg">
<path d="M11.668 26.8575L7.13767 22.1127C6.95411 21.9234 6.95411 21.6173 7.13767 21.428L7.41496 21.142C7.59852 20.9527 7.89533 20.9527 8.07889 21.142L12 25.2625L15.9211 21.146C16.1047 20.9567 16.4015 20.9567 16.585 21.146L16.8623 21.432C17.0459 21.6213 17.0459 21.9274 16.8623 22.1167L12.332 26.8615C12.1484 27.0468 11.8516 27.0468 11.668 26.8575Z" fill="black"/>
<path d="M12.332 9.14249L16.8623 13.8873C17.0459 14.0766 17.0459 14.3827 16.8623 14.572L16.585 14.858C16.4015 15.0473 16.1047 15.0473 15.9211 14.858L12 10.7375L8.07889 14.854C7.89533 15.0433 7.59852 15.0433 7.41496 14.854L7.13767 14.568C6.95411 14.3787 6.95411 14.0726 7.13767 13.8833L11.668 9.13846C11.8516 8.95318 12.1484 8.95318 12.332 9.14249Z" fill="black"/>
</svg>
