<svg width="24" height="24" viewBox="0 0 24 24" fill="none" xmlns="http://www.w3.org/2000/svg">
<path d="M7.50175 10.5714C7.03423 10.5714 6.65811 10.9536 6.65811 11.4286C6.65811 11.9036 7.03423 12.2857 7.50175 12.2857C7.96927 12.2857 8.34539 11.9036 8.34539 11.4286C8.34539 10.9536 7.96927 10.5714 7.50175 10.5714ZM12.0012 10.5714C11.5336 10.5714 11.1575 10.9536 11.1575 11.4286C11.1575 11.9036 11.5336 12.2857 12.0012 12.2857C12.4687 12.2857 12.8448 11.9036 12.8448 11.4286C12.8448 10.9536 12.4687 10.5714 12.0012 10.5714ZM16.5006 10.5714C16.0331 10.5714 15.6569 10.9536 15.6569 11.4286C15.6569 11.9036 16.0331 12.2857 16.5006 12.2857C16.9681 12.2857 17.3442 11.9036 17.3442 11.4286C17.3442 10.9536 16.9681 10.5714 16.5006 10.5714ZM12.0012 4C7.03072 4 3.00233 7.325 3.00233 11.4286C3.00233 13.1286 3.70185 14.6857 4.86186 15.9393C4.3381 17.3464 3.24839 18.5393 3.23082 18.5536C2.99882 18.8036 2.93554 19.1679 3.06912 19.4821C3.2027 19.7964 3.50852 20 3.84597 20C6.0078 20 7.71266 19.0821 8.73557 18.3464C9.75146 18.6714 10.8482 18.8571 12.0012 18.8571C16.9716 18.8571 21 15.5321 21 11.4286C21 7.325 16.9716 4 12.0012 4ZM12.0012 17.7143C11.0064 17.7143 10.0221 17.5607 9.07655 17.2571L8.54224 17.0857L8.08527 17.4143C7.27678 17.9964 6.02889 18.675 4.4787 18.8286C4.90052 18.2893 5.52622 17.3857 5.91289 16.3429L6.16247 15.675L5.68089 15.1536C4.66501 14.0607 4.12719 12.7714 4.12719 11.4286C4.12719 7.96429 7.65993 5.14286 12.0012 5.14286C16.3424 5.14286 19.8751 7.96429 19.8751 11.4286C19.8751 14.8929 16.3424 17.7143 12.0012 17.7143Z" fill="black"/>
</svg>
