<svg width="24" height="24" viewBox="0 0 24 24" fill="none" xmlns="http://www.w3.org/2000/svg">
<path d="M16.7665 9.5922C16.7741 9.69719 16.7741 9.80221 16.7741 9.90721C16.7741 13.1097 14.2995 16.7997 9.77666 16.7997C8.38325 16.7997 7.08884 16.4022 6 15.7122C6.19798 15.7347 6.38831 15.7422 6.59391 15.7422C7.74364 15.7422 8.80203 15.3597 9.64722 14.7072C8.56599 14.6847 7.6599 13.9872 7.34771 13.0272C7.50001 13.0497 7.65228 13.0647 7.81219 13.0647C8.033 13.0647 8.25383 13.0347 8.4594 12.9822C7.3325 12.7572 6.48729 11.7822 6.48729 10.6047V10.5747C6.81469 10.7547 7.19543 10.8672 7.59896 10.8822C6.93652 10.4472 6.50253 9.7047 6.50253 8.86469C6.50253 8.4147 6.62433 8.0022 6.83754 7.6422C8.04821 9.11219 9.86802 10.0722 11.9086 10.1772C11.8706 9.9972 11.8477 9.80971 11.8477 9.62221C11.8477 8.28719 12.9442 7.19971 14.3071 7.19971C15.0152 7.19971 15.6548 7.49221 16.1041 7.96471C16.6599 7.85971 17.1929 7.6572 17.665 7.37971C17.4822 7.94222 17.0939 8.41472 16.5838 8.7147C17.0787 8.66223 17.5584 8.5272 18 8.33972C17.665 8.8197 17.2462 9.24718 16.7665 9.5922Z" fill="black"/>
</svg>
