<svg width="16" height="16" viewBox="0 0 16 16" fill="none" xmlns="http://www.w3.org/2000/svg">
<path d="M10.1333 8.75C9.44999 8.75 9.12142 9.125 7.99999 9.125C6.87856 9.125 6.55237 8.75 5.86666 8.75C4.09999 8.75 2.66666 10.1609 2.66666 11.9V12.875C2.66666 13.4961 3.17856 14 3.80951 14H12.1905C12.8214 14 13.3333 13.4961 13.3333 12.875V11.9C13.3333 10.1609 11.9 8.75 10.1333 8.75ZM12.5714 12.875C12.5714 13.0813 12.4 13.25 12.1905 13.25H3.80951C3.59999 13.25 3.42856 13.0813 3.42856 12.875V11.9C3.42856 10.5758 4.52142 9.5 5.86666 9.5C6.33332 9.5 6.79761 9.875 7.99999 9.875C9.19999 9.875 9.66666 9.5 10.1333 9.5C11.4786 9.5 12.5714 10.5758 12.5714 11.9V12.875ZM7.99999 8C9.68332 8 11.0476 6.65703 11.0476 5C11.0476 3.34297 9.68332 2 7.99999 2C6.31666 2 4.95237 3.34297 4.95237 5C4.95237 6.65703 6.31666 8 7.99999 8ZM7.99999 2.75C9.25951 2.75 10.2857 3.76016 10.2857 5C10.2857 6.23984 9.25951 7.25 7.99999 7.25C6.74047 7.25 5.71428 6.23984 5.71428 5C5.71428 3.76016 6.74047 2.75 7.99999 2.75Z" fill="black"/>
</svg>
